<?xml version="1.0"?>
<svg xmlns:rdf="http://www.w3.org/1999/02/22-rdf-syntax-ns#" xmlns="http://www.w3.org/2000/svg" xmlns:cc="http://web.resource.org/cc/" xmlns:xlink="http://www.w3.org/1999/xlink" xmlns:dc="http://purl.org/dc/elements/1.1/" xmlns:svg="http://www.w3.org/2000/svg" id="Layer_1" style="enable-background:new 0 0 227.647 250.829" xml:space="preserve" viewBox="0 0 227.647 250.829" version="1.1" y="0px" x="0px">
<path clip-rule="evenodd" d="m217.15 3.833c0.805-0.064 1.491-0.01 1.816 0.404 0.026 0.498 0.031 0.972-0.2 1.21-1.14 0.088-1.32-0.484-1.62-1.614z" fill-rule="evenodd"/>
<path clip-rule="evenodd" d="m213.92 4.036h1.212c0.411 0.484 0.604 1.425-0.203 1.614-0.77-0.104-1.03-0.719-1.01-1.614z" fill-rule="evenodd"/>
<path clip-rule="evenodd" d="m212.31 4.439c0.127 0.781 0.168 0.831-0.201 1.413-1.36 0.089-1.69-1.828 0.2-1.413z" fill-rule="evenodd"/>
<path clip-rule="evenodd" d="m209.49 5.852c0.08 1.023-0.957 0.925-1.21 1.614-0.391-0.214-0.529-0.683-0.809-1.009 0.26-0.615 1.05-0.692 2.02-0.605z" fill-rule="evenodd"/>
<path clip-rule="evenodd" d="m214.73 6.457c0.496-0.026 0.972-0.03 1.21 0.202 0.116 0.655-0.136 0.938-0.202 1.413h-1.008c-0.07-0.727-0.31-0.973 0-1.615z" fill-rule="evenodd"/>
<path clip-rule="evenodd" d="m213.52 7.063c-0.066 0.471-0.241 0.833-0.404 1.21h-1.008c-0.115-0.422-0.5-0.576-0.404-1.21 0.73-0.117 0.93-0.277 1.81 0z" fill-rule="evenodd"/>
<path clip-rule="evenodd" d="m219.58 6.861h1.614c0.082 0.957-0.438 1.312-1.412 1.211-0.24-0.239-0.23-0.714-0.2-1.211z" fill-rule="evenodd"/>
<path clip-rule="evenodd" d="m204.84 7.264c0.385 0.087 0.51 0.435 1.01 0.404v1.009c-0.261 0.278-0.875 0.2-1.412 0.201 0.005-0.475-0.348-0.594-0.202-1.21 0.4 0.069 0.63-0.041 0.6-0.404z" fill-rule="evenodd"/>
<path clip-rule="evenodd" d="m209.49 8.475c-0.09 0.784-0.851 0.898-1.816 0.807-0.52-1.312 1.46-1.632 1.82-0.807z" fill-rule="evenodd"/>
<path clip-rule="evenodd" d="m203.03 8.878c0.233 0.566 0.233 1.049 0 1.614-0.535-0.001-1.15 0.077-1.412-0.201 0.033-0.235-0.043-0.359-0.2-0.404 0.3-0.569 0.56-1.184 1.61-1.009z" fill-rule="evenodd"/>
<path clip-rule="evenodd" d="m210.9 9.282c0.662 0.414 1.613 0.54 1.412 1.816-1.16 0.58-3.13-0.594-1.41-1.816z" fill-rule="evenodd"/>
<path clip-rule="evenodd" d="m218.77 9.282c0.689 0.108 0.309 0.972 0.2 1.413-0.962 0.157-1.192-0.421-1.21-1.21 0.29-0.111 1.04 0.235 1.01-0.203z" fill-rule="evenodd"/>
<path clip-rule="evenodd" d="m204.24 9.888c1.419-0.162 1.831 1.029 1.212 1.816-0.709-0.571-1.104 0.329-1.615-0.808-0.16-0.62 0.55-0.387 0.4-1.008z" fill-rule="evenodd"/>
<path clip-rule="evenodd" d="m219.98 10.089c1.018 0.103 0.598 1.807-0.2 1.816-0.007-0.196-0.247-0.157-0.404-0.202-0.13-0.866 0.17-1.299 0.6-1.614z" fill-rule="evenodd"/>
<path clip-rule="evenodd" d="m209.28 10.493c0.017 0.891-0.43 1.32-1.212 1.413-0.97-1.035 0.19-2.054 1.21-1.413z" fill-rule="evenodd"/>
<path clip-rule="evenodd" d="m214.73 10.493c0.506 1.136-0.158 1.531-0.809 2.018-0.381-0.022-0.14-0.667-0.604-0.605 0.09-0.85 0.25-1.63 1.41-1.413z" fill-rule="evenodd"/>
<path clip-rule="evenodd" d="m199.8 11.099v1.009c-0.723 0.472-2.157 0.225-1.815-1.009 0.93-0.053 0.98-0.215 1.82 0z" fill-rule="evenodd"/>
<path clip-rule="evenodd" d="m221.59 11.099h1.413v1.21c-1.15 0.387-1.94-0.066-1.41-1.21z" fill-rule="evenodd"/>
<path clip-rule="evenodd" d="m201.42 11.704c0.523 0.367 0.607-0.087 1.21 0.202 0.076 1.084-0.48 1.536-1.412 1.614-0.104-0.299-0.299-0.508-0.403-0.807-0.04-0.571 0.6-0.47 0.6-1.009z" fill-rule="evenodd"/>
<path clip-rule="evenodd" d="m210.09 13.117c0.699 0.217 1.208 0.853 0.806 1.614-1.111 0.17-1.677-0.208-1.614-1.211 0.51-0.348 0.78 0.307 0.8-0.403z" fill-rule="evenodd"/>
<path clip-rule="evenodd" d="m204.24 13.318c0.79-0.118 1.173 0.174 1.614 0.404-0.093 0.781-0.521 1.227-1.412 1.21 0.074-0.344-0.157-0.38-0.403-0.403-0.15-0.616 0.2-0.736 0.2-1.211z" fill-rule="evenodd"/>
<path clip-rule="evenodd" d="m219.17 13.722c0.048 0.786-0.434 1.046-0.605 1.614-0.539 0-0.438-0.638-1.009-0.605-0.17-1.008 0.92-1.515 1.62-1.009z" fill-rule="evenodd"/>
<path clip-rule="evenodd" d="m214.33 13.722c0.611 0.129 1.164 0.315 1.212 1.009-0.533 0.314-0.814 0.88-1.212 0.806-0.414-0.056-0.402-0.539-0.604-0.806-0.1-0.634 0.54-0.534 0.6-1.009z" fill-rule="evenodd"/>
<path clip-rule="evenodd" d="m199.8 14.327c0.238 1.128-1.034 1.541-1.815 1.009v-1.009c0.7-0.192 1.31-0.685 1.82 0z" fill-rule="evenodd"/>
<path clip-rule="evenodd" d="m220.79 14.125c0.361-0.025 0.427 0.248 0.808 0.202 0.197 1.004-0.413 1.202-0.605 1.816-0.94-0.24-0.92-1.617-0.21-2.018z" fill-rule="evenodd"/>
<path clip-rule="evenodd" d="m203.03 16.346c-0.19 0.414-1.037 0.17-1.008 0.807-0.483-0.399-0.946-0.937-0.604-1.615 0.86-0.259 1.54-0.184 1.61 0.808z" fill-rule="evenodd"/>
<path clip-rule="evenodd" d="m206.66 15.538h1.01c-0.018 0.287-0.034 0.571 0.202 0.606-0.297 1.089-0.898 1.083-1.614 1.412 0.11-0.447-0.386-0.287-0.404-0.605 0.06-0.672 0.82-0.657 0.8-1.413z" fill-rule="evenodd"/>
<path clip-rule="evenodd" d="m216.55 16.547c0.413 0.919 0.092 2.214-1.212 2.018-0.55-1.057 0.17-1.944 1.21-2.018z" fill-rule="evenodd"/>
<path clip-rule="evenodd" d="m219.98 17.152c-0.115 0.758-0.174 1.573-1.209 1.413-0.66-0.879 0.23-2.118 1.21-1.413z" fill-rule="evenodd"/>
<path clip-rule="evenodd" d="m196.77 17.354c-0.25 0.828-0.312 1.842-1.616 1.614 0.019-0.655 0.105-1.24 0.404-1.614 0.37-0.376 0.53 0.164 1.22 0z" fill-rule="evenodd"/>
<path clip-rule="evenodd" d="m211.3 18.162c0.13 0.938-0.475 1.14-1.414 1.008-0.74-1.365 0.77-2.123 1.41-1.008z" fill-rule="evenodd"/>
<path clip-rule="evenodd" d="m191.93 17.96c-0.147 0.523-0.159 1.185-0.604 1.412-1.65-0.095-0.87-2.391 0.6-1.412z" fill-rule="evenodd"/>
<path clip-rule="evenodd" d="m199.2 17.758c0.651 0.154 1.056 0.558 1.212 1.21-0.556 0.426-0.845 0.347-1.011 0.808-0.9-0.332-0.98-1.53-0.2-2.018z" fill-rule="evenodd"/>
<path clip-rule="evenodd" d="m204.24 18.767c0.209 1.083-0.678 1.071-0.808 1.815-0.713-0.176-0.496-0.024-1.21-0.201 0.04-1.088 1.01-2.139 2.02-1.614z" fill-rule="evenodd"/>
<path clip-rule="evenodd" d="m220.18 18.565h0.807c0.123 0.483 0.291 0.92 0.202 1.614h-1.212c-0.09-0.694 0.08-1.131 0.2-1.614z" fill-rule="evenodd"/>
<path clip-rule="evenodd" d="m207.27 20.784c-0.82-0.053-0.621-0.14-1.211-0.605 0.14-2.046 2.5-0.768 1.21 0.605z" fill-rule="evenodd"/>
<path clip-rule="evenodd" d="m218.16 19.574c0.496 0.854-0.069 1.43-0.402 2.017-0.501-0.537-1.361-0.12-1.21-1.614 0.49-0.178 0.74-0.604 1.61-0.403z" fill-rule="evenodd"/>
<path clip-rule="evenodd" d="m213.92 19.977c0.475 0.065 0.454 0.625 0.809 0.807-0.308 0.366-0.65 0.695-0.809 1.211-0.811 0.207-0.896-0.314-1.21-0.605 0.07-1.035 1.15-0.867 1.21-1.413z" fill-rule="evenodd"/>
<path clip-rule="evenodd" d="m204.64 20.784c0.523 0.148 1.186 0.16 1.412 0.606 0.076 0.682-0.35 0.861-0.604 1.21-1.06-0.147-1.35-1.102-0.81-1.816z" fill-rule="evenodd"/>
<path clip-rule="evenodd" d="m187.49 21.39c-0.161 0.377-0.337 0.739-0.404 1.21-0.497 0.027-0.972 0.03-1.21-0.202-0.26-1.352 0.94-1.712 1.61-1.008z" fill-rule="evenodd"/>
<path clip-rule="evenodd" d="m219.58 20.986c0.162 0.106 0.326 0.21 0.605 0.202v1.614c-0.236-0.033-0.359 0.044-0.403 0.202-0.529-0.278-0.874-0.741-0.809-1.614 0.41 0.408 0.4-0.082 0.61-0.404z" fill-rule="evenodd"/>
<path clip-rule="evenodd" d="m195.76 21.591h1.21c-0.121 0.687-0.291 1.324-0.807 1.615-0.95 0.108-0.54-1.144-0.4-1.615z" fill-rule="evenodd"/>
<path clip-rule="evenodd" d="m189.91 21.995c0.923 0.127 1.99 0.273 1.211 1.413-0.695 0.088-1.132-0.08-1.614-0.201-0.1-0.636 0.29-0.79 0.4-1.212z" fill-rule="evenodd"/>
<path clip-rule="evenodd" d="m208.68 22.803c0.149 0.621-0.696 0.246-0.403 1.009-0.841 0.101-0.969-0.512-1.01-1.211 0.63-0.265 1.02-0.557 1.41 0.202z" fill-rule="evenodd"/>
<path clip-rule="evenodd" d="m201.01 22.803c0.315 0.637-0.111 0.886-0.201 1.614-0.754-0.019-0.575-0.227-1.211 0-0.174-0.163-0.12-0.553-0.403-0.605 0.32-0.935 0.7-1.283 1.81-1.009z" fill-rule="evenodd"/>
<path clip-rule="evenodd" d="m212.31 23.812c-0.239 1.313-2.015 1.828-1.814-0.202 0.82-0.323 1.31-0.601 1.81 0.202z" fill-rule="evenodd"/>
<path clip-rule="evenodd" d="m215.94 23.408c0.315 0.638-0.11 0.886-0.202 1.614-0.285-0.017-0.571-0.033-0.604 0.202-1.09-0.315-0.64-2.261 0.8-1.816z" fill-rule="evenodd"/>
<path clip-rule="evenodd" d="m203.03 23.812h1.011c0.605 0.649 0.133 1.131-0.202 1.815-0.388-0.373-0.159-0.369-0.809-0.201-0.31-0.642-0.07-0.888 0-1.614z" fill-rule="evenodd"/>
<path clip-rule="evenodd" d="m217.96 24.417c0.62 0.693 0.058 0.877 0 1.816-0.592-0.054-0.749-0.278-1.009 0-0.225-0.382-0.504-0.708-0.605-1.211 0.4-0.347 0.66-0.828 1.62-0.605z" fill-rule="evenodd"/>
<path clip-rule="evenodd" d="m206.06 25.426c1.216 0.318 0.371 2.09-0.604 2.018-0.087-0.453-0.434-0.643-0.607-1.008 0.4-0.34 0.96-0.514 1.21-1.01z" fill-rule="evenodd"/>
<path clip-rule="evenodd" d="m182.24 26.233c-0.022 0.715-0.2 1.279-0.808 1.413-0.493-0.112-0.736-0.473-1.009-0.808 0.07-0.713 1.22-1.066 1.82-0.605z" fill-rule="evenodd"/>
<path clip-rule="evenodd" d="m213.52 26.233c1.323 0.157 0.624 2.315-0.807 2.018 0.019-0.286 0.033-0.571-0.202-0.605-0.06-0.866 0.95-0.664 1.01-1.413z" fill-rule="evenodd"/>
<path clip-rule="evenodd" d="m196.57 26.435c0.884-0.077 1.375 0.241 1.616 0.807-0.325 0.551-0.923 0.825-1.816 0.807-0.09-0.694 0.08-1.131 0.2-1.614z" fill-rule="evenodd"/>
<path clip-rule="evenodd" d="m188.3 27.04c-0.057 0.326 0.19 0.348 0.203 0.605 0.214 0.753-0.759 0.319-0.607 1.009-0.87 0.018-1.252-0.481-1.412-1.614 0.83-0.198 0.82 0.022 1.82 0z" fill-rule="evenodd"/>
<path clip-rule="evenodd" d="m210.09 27.04c-0.139 0.873-0.897 1.124-1.212 1.816h-0.809c-0.38-1.652 0.69-2.49 2.02-1.816z" fill-rule="evenodd"/>
<path clip-rule="evenodd" d="m201.21 27.242c0.787 0.247 0.757 0.863 0.606 1.614h-1.212c-0.36-0.96 0.14-1.04 0.6-1.614z" fill-rule="evenodd"/>
<path clip-rule="evenodd" d="m215.34 27.443c0.591 0.014 0.75 0.461 1.01 0.808-0.127 0.614-0.448 1.032-1.211 1.009-0.59-0.626-0.29-1.284 0.2-1.817z" fill-rule="evenodd"/>
<path clip-rule="evenodd" d="m202.22 29.865h0.806c0.358 0.693 0.175 1.512-0.402 1.815-0.75-0.13-0.69-1.199-0.41-1.815z" fill-rule="evenodd"/>
<path clip-rule="evenodd" d="m191.32 31.479c-0.259 0.278-0.877 0.2-1.412 0.201 0.145-0.616-0.348-0.593-0.203-1.21 0.87-0.508 1.76-0.462 1.61 1.009z" fill-rule="evenodd"/>
<path clip-rule="evenodd" d="m211.3 30.471c-0.002 1.469-0.726 1.634-2.019 1.412v-1.211c0.89-0.264 1.02-0.36 2.02-0.201z" fill-rule="evenodd"/>
<path clip-rule="evenodd" d="m214.73 31.076c-0.386 0.354-0.727 0.755-0.809 1.413-0.779-0.135-0.717 0-1.21-0.201-0.25-1.397 1.43-2.474 2.02-1.212z" fill-rule="evenodd"/>
<path clip-rule="evenodd" d="m183.66 30.672c0.874-0.2 1.12 0.226 1.616 0.404 0.188 0.863-0.802 0.546-0.808 1.211-0.83 0.014-0.87-0.746-0.81-1.615z" fill-rule="evenodd"/>
<path clip-rule="evenodd" d="m206.26 30.672c0.652-0.249 0.152 0.653 0.807 0.404 0.294 1.1-0.641 0.974-0.807 1.614-1.17-0.542-0.53-1.26 0-2.018z" fill-rule="evenodd"/>
<path clip-rule="evenodd" d="m199.4 31.076c-0.169 0.437-0.523 0.688-0.403 1.413h-1.614c0.146-0.617-0.349-0.593-0.202-1.21 0.64-0.413 1.36-0.446 2.21-0.203z" fill-rule="evenodd"/>
<path clip-rule="evenodd" d="m178.01 31.278c0.847-0.244 0.883 0.326 1.412 0.403-0.04 0.834-0.381 1.369-1.412 1.211-0.07-0.726-0.31-0.972 0-1.614z" fill-rule="evenodd"/>
<path clip-rule="evenodd" d="m194.55 31.278c0.227 0.635 0.019 0.457 0 1.21-0.357 0.046-1.011-0.203-0.808 0.404-0.296-0.377-0.81-0.536-0.808-1.211 0.5-0.178 0.75-0.604 1.62-0.403z" fill-rule="evenodd"/>
<path clip-rule="evenodd" d="m173.37 31.883c0.621-0.151 0.245 0.695 1.009 0.404 0.179 1.121-0.562 1.322-1.616 1.21 0.007-0.475-0.347-0.594-0.2-1.21 0.36-0.046 1.01 0.203 0.81-0.404z" fill-rule="evenodd"/>
<path clip-rule="evenodd" d="m211.1 33.699c0.535 0.002 1.153-0.076 1.412 0.202 0.161 0.699-0.3 0.775-0.202 1.412-1.05 0.642-1.9-0.153-1.21-1.614z" fill-rule="evenodd"/>
<path clip-rule="evenodd" d="m183.66 34.103c0.146 0.617-0.207 0.735-0.2 1.211-0.656 0.117-0.939-0.137-1.414-0.202v-1.009c0.91-0.031 0.79-0.167 1.61 0z" fill-rule="evenodd"/>
<path clip-rule="evenodd" d="m207.87 33.901c0.864 0.504 0.422 1.22 0 1.815-0.345 0.042-0.522-0.343-0.605 0-0.87-0.576-0.15-1.7 0.61-1.815z" fill-rule="evenodd"/>
<path clip-rule="evenodd" d="m194.75 34.708c0.916 0.01 0.694 1.726 0.203 2.017-0.181-0.124-0.361-0.244-0.404 0-0.95-0.378-0.55-1.733 0.2-2.017z" fill-rule="evenodd"/>
<path clip-rule="evenodd" d="m198.59 35.111c0.962-0.156 0.788 0.825 0.806 1.614-1.026 0.145-1.548-0.334-1.815-0.403 0.06-0.536 0.73-0.458 1.01-1.211z" fill-rule="evenodd"/>
<path clip-rule="evenodd" d="m204.24 35.516c0.057 1.005-1.14 1.582-2.018 1.009 0.02-1.337 1.15-1.533 2.02-1.009z" fill-rule="evenodd"/>
<path clip-rule="evenodd" d="m176.19 36.121h1.21c0.386 0.71-0.192 0.979-0.404 1.614-0.67-0.256-1.11-0.953-0.81-1.614z" fill-rule="evenodd"/>
<path clip-rule="evenodd" d="m188.9 36.524c0.021 0.626-0.246 0.964-0.402 1.413h-1.414c-0.51-1.184 0.39-1.613 1.81-1.413z" fill-rule="evenodd"/>
<path clip-rule="evenodd" d="m209.28 36.726c0.493 0.113 0.737 0.474 1.009 0.807 0.121 0.728-0.614 0.595-0.604 1.211-0.655 0.117-0.939-0.137-1.412-0.202-0.16-1.095 0.88-1.002 1-1.816z" fill-rule="evenodd"/>
<path clip-rule="evenodd" d="m206.06 38.341c-0.471 0.269-0.388 1.091-1.212 1.008-0.039-0.633-0.798-0.547-0.604-1.412 0.56-0.474 1.58-0.096 1.81 0.404z" fill-rule="evenodd"/>
<path clip-rule="evenodd" d="m191.53 39.753h0.605c0.833 1.889-2.055 2.49-1.412 0.403 0.35-0.046 1 0.204 0.8-0.403z" fill-rule="evenodd"/>
<path clip-rule="evenodd" d="m182.24 40.156c-0.118 0.622-0.053 1.429-0.808 1.413-0.624-0.048-0.629-0.716-0.807-1.211 0.43-0.211 1.08-0.718 1.62-0.202z" fill-rule="evenodd"/>
<path clip-rule="evenodd" d="m170.74 40.156c0.498-0.026 0.973-0.03 1.211 0.202 0.228 1.108-0.583 1.3-0.807 1.412-0.69-0.148-0.68-1.007-0.4-1.614z" fill-rule="evenodd"/>
<path clip-rule="evenodd" d="m200.61 40.761h1.412v1.211c-0.626 0.265-0.575-0.054-1.412 0-0.23-0.635-0.02-0.456 0-1.211z" fill-rule="evenodd"/>
<path clip-rule="evenodd" d="m206.46 40.761h0.807c0.273 0.903 0.236 1.924-1.009 1.816-0.62-0.68 0.19-1.148 0.2-1.816z" fill-rule="evenodd"/>
<path clip-rule="evenodd" d="m209.28 41.973c0.391 0.712-0.095 0.902-0.202 1.614-0.459 0.277-0.758-0.52-0.806 0-0.452-0.087-0.082-0.995-0.204-1.413 0.49 0.5 0.33-0.524 1.21-0.201z" fill-rule="evenodd"/>
<path clip-rule="evenodd" d="m165.09 42.578c1.277-0.084 1.225 1.842 0.2 2.018-0.568 0.031-0.506-0.57-0.809-0.807-0.1-0.715 0.72-0.496 0.61-1.211z" fill-rule="evenodd"/>
<path clip-rule="evenodd" d="m184.66 43.184c0.714-0.108 1.041 0.171 1.212 0.605 0.022 0.763-0.395 1.085-1.009 1.211-0.57-0.434-0.33-1.076-0.2-1.816z" fill-rule="evenodd"/>
<path clip-rule="evenodd" d="m197.18 44.596c-0.448-0.111-0.287 0.385-0.606 0.404-0.646-0.228-1.083-0.665-1.008-1.614 0.98-0.35 1.74-0.05 1.62 1.21z" fill-rule="evenodd"/>
<path clip-rule="evenodd" d="m201.62 44.596h1.412c0.317 0.637-0.109 0.886-0.2 1.614-0.91-0.038-1.17-0.717-1.21-1.614z" fill-rule="evenodd"/>
<path clip-rule="evenodd" d="m205.85 45h1.413c0.441 1.042-0.419 0.766-0.606 1.614-0.81 0.014-0.86-0.746-0.8-1.614z" fill-rule="evenodd"/>
<path clip-rule="evenodd" d="m178.01 46.008c0.082 0.486-0.37 0.438-0.204 1.009-0.713 0.354-1.038-0.677-1.209-0.202-0.29-0.249-0.384-0.694-0.403-1.21 1.01-0.179 1.24-0.175 1.81 0.403z" fill-rule="evenodd"/>
<path clip-rule="evenodd" d="m189.91 45.403c0.565 0.443 1.913 0.104 1.613 1.413-0.26 0.278-0.876 0.2-1.413 0.202-0.25-0.563-0.49-0.997-0.2-1.615z" fill-rule="evenodd"/>
<path clip-rule="evenodd" d="m169.93 47.219c0.499-0.027 0.972-0.03 1.212 0.202 0.033 0.637 0.007 1.217-0.404 1.412-1.04 0.12-1.11-0.947-0.81-1.614z" fill-rule="evenodd"/>
<path clip-rule="evenodd" d="m199.6 48.229c0.096 0.635-0.287 0.788-0.403 1.21-0.64-0.242-1.421-0.461-1.614-0.605-0.06-1.039 1.58-1.218 2.01-0.605z" fill-rule="evenodd"/>
<path clip-rule="evenodd" d="m196.17 48.229c0.11 0.918-0.109 1.503-0.806 1.614-1.34-0.329-0.19-2.413 0.81-1.614z" fill-rule="evenodd"/>
<path clip-rule="evenodd" d="m204.44 48.229v1.008c-0.475 0.065-0.757 0.319-1.414 0.202-0.87-0.976 0.55-1.96 1.41-1.21z" fill-rule="evenodd"/>
<path clip-rule="evenodd" d="m157.83 48.833c0.442 0.446 0.824-0.2 1.613 0 0.201 0.874-0.224 1.12-0.402 1.614-0.751 0.187-0.748-0.937-0.807-1.009 0.12 0.141-0.85 0.622-0.4-0.605z" fill-rule="evenodd"/>
<path clip-rule="evenodd" d="m187.89 51.255c-0.349 0.659-0.891 1.127-2.017 1.009 0.003-0.476-0.349-0.595-0.202-1.211 0.67-0.478 1.8-0.562 2.22 0.202z" fill-rule="evenodd"/>
<path clip-rule="evenodd" d="m176.8 51.255c0.174 0.163 0.121 0.553 0.403 0.605-0.438 0.995-1.32 0.979-1.614 0.807-0.3-0.171-0.292-0.649-0.402-1.008 0.49-0.179 0.73-0.605 1.61-0.404z" fill-rule="evenodd"/>
<path clip-rule="evenodd" d="m162.67 53.071c-0.161-1.717 2.87-1.704 1.615 0.202-1 0.131-0.85 0.098-1.61-0.202z" fill-rule="evenodd"/>
<path clip-rule="evenodd" d="m201.82 52.466c0.157 1.033-0.361 1.39-1.412 1.21 0.016-0.287 0.032-0.571-0.204-0.605 0.14-0.732 0.91-0.969 1.61-0.605z" fill-rule="evenodd"/>
<path clip-rule="evenodd" d="m198.19 53.071c-0.065 0.826-1.24 1.336-2.019 0.807v-1.009c0.88-0.245 1.47-0.639 2.02 0.202z" fill-rule="evenodd"/>
<path clip-rule="evenodd" d="m194.35 53.071c0.231 0.565 0.231 1.049 0 1.614-1.053 0.179-1.572-0.178-1.414-1.21 0.79 0.187 0.51-0.702 1.41-0.404z" fill-rule="evenodd"/>
<path clip-rule="evenodd" d="m180.23 53.475c0.933 0.365 1.132 1.126 0.604 2.018-0.956-0.054-1.38-0.638-1.614-1.413 0.54 0.001 0.44-0.638 1.01-0.605z" fill-rule="evenodd"/>
<path clip-rule="evenodd" d="m170.54 54.887c0.142 0.88-0.582 0.897-0.605 1.614-0.462-0.411-0.473-0.287-1.009-0.807-0.11-0.884 0.94-1.329 1.61-0.807z" fill-rule="evenodd"/>
<path clip-rule="evenodd" d="m188.1 56.704h0.807c0.496 0.855-0.07 1.43-0.402 2.018-0.506 0.267-0.634-0.797-0.808-0.201-0.549 0.144 0.145-0.952-0.404-0.808 0.29-0.305 0.89-0.307 0.8-1.009z" fill-rule="evenodd"/>
<path clip-rule="evenodd" d="m195.97 57.309c0.003 0.476-0.349 0.594-0.202 1.211-0.406-0.069-0.633 0.041-0.606 0.403-0.345 0.043-0.522-0.344-0.604 0-1.13-0.994 0.57-2.565 1.41-1.614z" fill-rule="evenodd"/>
<path clip-rule="evenodd" d="m176.59 58.721c0.455 0.841 0.349 1.496-0.403 2.018-0.821 0.014-0.869-0.746-0.809-1.614 0.64 0.098 0.46-0.62 1.21-0.404z" fill-rule="evenodd"/>
<path clip-rule="evenodd" d="m183.05 60.335c0.082 0.486-0.37 0.439-0.204 1.009-0.504-0.025-0.631-0.385-0.807 0.202-0.223-0.382-0.504-0.708-0.605-1.211 0.197-0.006 0.157-0.248 0.203-0.403 0.89-0.263 0.82 0.011 1.41 0.403z" fill-rule="evenodd"/>
<path clip-rule="evenodd" d="m153.59 60.94c0.096 2.703-2.286 3.473-3.834 3.431-0.484-0.611-1.137-2.817 0-3.229 0.914-0.107 0.479 1.136 1.01 1.413 1.525 0.139 0.553-1.43 1.008-2.019 0.7-0.609 1.28 0.214 1.81 0.404z" fill-rule="evenodd"/>
<path clip-rule="evenodd" d="m162.67 61.143c-0.156 0.18-0.217 0.456-0.201 0.807-0.902 0.184-1.251 0.524-1.815 0.202-0.28-1.328 1.32-1.843 2.01-1.009z" fill-rule="evenodd"/>
<path clip-rule="evenodd" d="m189.1 61.546c0.925-0.118 0.94 0.673 1.412 1.009 0 0.539-0.637 0.438-0.604 1.009-0.197-0.343-0.559-0.519-1.212-0.404-0.43-0.76 0.32-0.854 0.4-1.614z" fill-rule="evenodd"/>
<path clip-rule="evenodd" d="m169.53 62.151c0.644-0.173 0.624 0.318 1.01 0.404 0.153 1.026-0.433 1.314-1.01 1.614-0.312-0.293-0.424-0.788-0.402-1.413 0.43 0.095 0.38-0.287 0.4-0.605z" fill-rule="evenodd"/>
<path clip-rule="evenodd" d="m191.73 65.784c0.327 0.661-0.046 0.771 0 1.614h-1.212c-0.45-0.867-0.17-1.984 1.21-1.614z" fill-rule="evenodd"/>
<path clip-rule="evenodd" d="m174.38 66.187c-0.019 0.287-0.033 0.572 0.2 0.606-0.2 0.27-0.545 0.396-0.604 0.807-0.844-0.146-0.798 0.073-1.212-0.404 0.1-0.765 0.55-1.184 1.61-1.009z" fill-rule="evenodd"/>
<path clip-rule="evenodd" d="m184.06 66.187c0.92 0.023 1.566 0.317 1.412 1.413-0.446-0.111-0.287 0.385-0.604 0.403-1.09 0.256-1.24-1.191-0.81-1.816z" fill-rule="evenodd"/>
<path clip-rule="evenodd" d="m117.67 70.627c0.599 0.074 0.995 0.35 1.212 0.807 0.029 0.502-0.319 0.625-0.404 1.009-0.742-0.103-1.005-0.069-1.412-0.807-0.15-0.69 0.81-0.256 0.6-1.009z" fill-rule="evenodd"/>
<path clip-rule="evenodd" d="m185.67 72.443c0.328 0.661-0.044 0.771 0 1.614-1.053 0.179-1.571-0.177-1.412-1.211 0.8 0.187 0.51-0.701 1.41-0.403z" fill-rule="evenodd"/>
<path clip-rule="evenodd" d="m165.7 72.846c0.115 0.422 0.5 0.577 0.404 1.211-0.347 0.57-0.795-0.075-0.808 0.605-0.33-0.409-0.9-0.578-0.809-1.413 0.58 0.036 0.4-0.681 1.22-0.403z" fill-rule="evenodd"/>
<path clip-rule="evenodd" d="m175.79 74.057c0.215 0.188 0.062 0.745 0.604 0.605-0.279 0.258-0.121 0.953-0.402 1.211-0.889 0.288-1.017-0.17-1.614-0.605 0.03-0.834 0.38-1.368 1.41-1.211z" fill-rule="evenodd"/>
<path clip-rule="evenodd" d="m119.29 74.663c0.207 1.015-0.509 1.107-0.808 1.614-0.708-0.167-0.985-0.764-1.008-1.614 0.61-0.545 1.14-0.367 1.82 0z" fill-rule="evenodd"/>
<path clip-rule="evenodd" d="m179.82 75.269c1.091-0.283 1.069 0.544 1.816 0.605 0.216 0.754-0.502 0.575-0.403 1.21-0.86-0.372-1.9-0.649-1.42-1.815z" fill-rule="evenodd"/>
<path clip-rule="evenodd" d="m119.29 76.075c0.315 0.424 0.985 0.494 1.211 1.009-0.226 0.312-0.655 0.42-0.606 1.009-0.69-0.298-1.49-1.316-0.6-2.018z" fill-rule="evenodd"/>
<path clip-rule="evenodd" d="m171.15 77.488c0.085 0.894-0.337 1.278-1.009 1.413 0.076-0.614-0.735-0.343-0.808-0.808 0.01-0.938 1.28-1.335 1.82-0.605z" fill-rule="evenodd"/>
<path clip-rule="evenodd" d="m176.39 78.699h0.404c0.632 0.107 0.728 0.752 0.808 1.412-0.95 0.729-1.84-0.509-1.21-1.412z" fill-rule="evenodd"/>
<path clip-rule="evenodd" d="m171.75 80.313c0.338 0.356 0.677-0.18 1.412 0 0.564 0.634 0.25 1.067 0 1.815-0.716-0.157-0.732-0.026-1.612-0.201-0.13-1.005-0.1-0.859 0.2-1.614z" fill-rule="evenodd"/>
<path clip-rule="evenodd" d="m143.9 80.716c0.274 0.887-0.015 1.509-0.605 2.018-0.654-0.288-1.202-0.681-1.009-1.816 0.75 0.143 0.87-0.345 1.61-0.202z" fill-rule="evenodd"/>
<path clip-rule="evenodd" d="m165.09 82.129c-0.404 0.38-0.864 0.189-1.011 0.404-1.94-1.07 1.35-3.113 1.01-0.404z" fill-rule="evenodd"/>
<path clip-rule="evenodd" d="m130.18 81.321c1.043 2.455 0.203 5.835-2.826 4.843-0.943-1.228-0.598-3.535 0.203-4.641 1.3 0.033 1.94-0.054 2.63-0.202zm-2.02 3.229c1.225 0.596 1.393-1.711 0.606-1.815-0.32 0.482-0.67 0.95-0.61 1.815z" fill-rule="evenodd"/>
<path clip-rule="evenodd" d="m175.18 81.523h1.009c0.509 0.554 0.407 1.406-0.202 1.816-0.54 0.001-0.438-0.638-1.01-0.605-0.03-0.497-0.03-0.972 0.2-1.211z" fill-rule="evenodd"/>
<path clip-rule="evenodd" d="m136.44 84.55c-1.214-0.064-1.576-0.979-1.412-2.421 0.94-0.104 0.893-0.596 1.614 0 0 0.877 0.07 1.816-0.2 2.421z" fill-rule="evenodd"/>
<path clip-rule="evenodd" d="m166.91 84.55h1.614c0.031 0.92 0.167 0.792 0 1.614-1.37 0.262-1.96-0.759-1.61-1.614z" fill-rule="evenodd"/>
<path clip-rule="evenodd" d="m173.97 84.55h1.212c0.115 0.422 0.5 0.577 0.402 1.211-0.651-0.25-0.154 0.653-0.806 0.403-0.73-0.185-1.1-0.952-0.8-1.614z" fill-rule="evenodd"/>
<path clip-rule="evenodd" d="m170.74 85.156c0.864 0.033 1.122 1.615 0.202 1.816-0.79-0.108-0.71-1.499-0.2-1.816z" fill-rule="evenodd"/>
<path clip-rule="evenodd" d="m159.84 85.761c0.843-0.103 1.021 0.459 1.616 0.605 0.053 0.591-0.457 0.62-0.404 1.211-0.476 0.004-0.594-0.347-1.212-0.202-0.24-0.564-0.24-1.048-0.01-1.614z" fill-rule="evenodd"/>
<path clip-rule="evenodd" d="m151.37 86.164c0.741 0.066 1.787-0.171 2.219 0.202 0.104 1.325-1.245 1.303-2.019 1.211-0.24-0.556-0.44-0.843-0.2-1.413z" fill-rule="evenodd"/>
<path clip-rule="evenodd" d="m166.71 87.577c0.89-0.15 1.323 0.155 1.616 0.605 0 0.808-0.51 1.105-1.414 1.009-0.34-0.488-0.53-0.98-0.21-1.614z" fill-rule="evenodd"/>
<path clip-rule="evenodd" d="m164.69 88.385c-0.157 0.18-0.217 0.456-0.204 0.807-0.333 0.338-1.184 0.16-1.815 0.202 0.01-0.346-0.148-0.523-0.402-0.605 0.33-1.113 1.69-1.157 2.41-0.404z" fill-rule="evenodd"/>
<path clip-rule="evenodd" d="m108.99 87.98c0.782 0.094 1.227 0.522 1.211 1.413-0.727-0.122-0.594 0.616-1.211 0.605-0.55-0.601-0.38-1.379 0-2.018z" fill-rule="evenodd"/>
<path clip-rule="evenodd" d="m132.2 89.595c0.753 0.258 0.115 1.903 0.604 2.422 0.467-0.207 0.417-0.928 0.404-1.614h1.616c0.351 2.583-1.137 4.038-2.826 3.43-0.71-0.738-1.076-2.55-0.606-3.834 0.47 0.057 0.77-0.049 0.82-0.404z" fill-rule="evenodd"/>
<path clip-rule="evenodd" d="m170.34 89.797c0.232 0.565 0.232 1.049 0 1.614-1.54 0.462-1.67-2.113 0-1.614z" fill-rule="evenodd"/>
<path clip-rule="evenodd" d="m104.35 91.209c-0.839 0.652-0.871 0.585-2.22 0.404-0.95-1.674 2.24-2.315 2.22-0.404z" fill-rule="evenodd"/>
<path clip-rule="evenodd" d="m123.93 93.833c0.131-0.876 1.837-1.028 1.008-2.22-0.752 0.256-1.194 0.824-2.22 0.807 0.005-0.475-0.347-0.593-0.201-1.211 0.93-0.146 1.626-0.526 2.017-1.21 1.235-0.023 1.37 1.052 2.019 1.614 0.13 1.825-1.16 3.825-2.63 2.22z" fill-rule="evenodd"/>
<path clip-rule="evenodd" d="m157.42 90.403h1.21c0.46 0.701 0.415 1.347 0 2.017-0.345 0.043-0.522-0.344-0.606 0-0.74-0.128-0.6-1.133-0.6-2.017z" fill-rule="evenodd"/>
<path clip-rule="evenodd" d="m105.36 90.806c0.377 0.161 0.739 0.338 1.21 0.403 0.131 0.736-0.135 1.076-0.403 1.413-0.235-0.169-0.541-0.266-1.009-0.202-0.09-0.693 0.08-1.13 0.2-1.614z" fill-rule="evenodd"/>
<path clip-rule="evenodd" d="m167.11 91.008c0.343 1.55-1.616 1.827-1.614 0.403 0.01-0.83 1.09-0.6 1.61-0.403z" fill-rule="evenodd"/>
<path clip-rule="evenodd" d="m154.6 92.42c0.685 0.152 1.537-0.134 1.613 1.009-0.65-0.181-0.283 0.659-0.604 0.807-0.525-0.081-0.607-0.602-1.212-0.605-0.15-0.616 0.2-0.735 0.2-1.211z" fill-rule="evenodd"/>
<path clip-rule="evenodd" d="m102.33 93.429c0.792 0.017 1.259 0.355 1.816 0.605 0.146 0.618-0.348 0.594-0.202 1.211-0.637-0.316-0.886 0.111-1.614 0.202-0.167-0.505-0.552-0.793-0.605-1.413 0.18-0.215 0.73-0.062 0.59-0.605z" fill-rule="evenodd"/>
<path clip-rule="evenodd" d="m145.72 93.631c0.379 0.427 1.041 0.573 0.807 1.614h-1.413c-0.278-0.124-0.029-0.777-0.403-0.807 0.2-0.847 0.79-0.142 1-0.807z" fill-rule="evenodd"/>
<path clip-rule="evenodd" d="m167.31 95.447c-0.09-0.18-0.177-0.361-0.403-0.404 0.16-3.112 3.58 0.309 0.4 0.404z" fill-rule="evenodd"/>
<path clip-rule="evenodd" d="m162.27 95.851c-0.376-0.364-0.741-0.741-0.606-1.614 0.808-0.93 2.221 0.165 1.616 1.211-0.39 0.088-1.22-0.276-1.01 0.403z" fill-rule="evenodd"/>
<path clip-rule="evenodd" d="m166.3 94.438c-0.155 0.179-0.217 0.456-0.2 0.807-0.65-0.044-0.854 0.356-1.616 0.202-0.77-1.675 1.05-1.977 1.82-1.009z" fill-rule="evenodd"/>
<path clip-rule="evenodd" d="m148.14 95.447h1.412c0.329 0.661-0.046 0.771 0 1.614-0.196-0.005-0.157-0.247-0.203-0.404-0.195 0.006-0.154 0.247-0.2 0.404-0.77-0.104-1.03-0.719-1.01-1.614z" fill-rule="evenodd"/>
<path clip-rule="evenodd" d="m166.3 96.053c0.148 0.803 0.148 0.811 0 1.614-0.699 0.313-1.547-0.113-1.412-1.211 0.8 0.199 0.61-0.603 1.41-0.403z" fill-rule="evenodd"/>
<path clip-rule="evenodd" d="m161.66 97.667c0.087 0.826-0.427 1.053-0.807 1.412-0.509-0.298-0.834-0.78-1.01-1.412 0.68-0.367 1.21-0.544 1.82 0z" fill-rule="evenodd"/>
<path clip-rule="evenodd" d="m157.22 98.07c-0.271 0.949-0.826 0.962-1.614 1.009 0.003-0.475-0.349-0.594-0.202-1.21 0.51-0.457 1.42-0.081 1.81 0.201z" fill-rule="evenodd"/>
<path clip-rule="evenodd" d="m98.703 97.869h1.412c-0.077 0.682 0.893 0.317 0.605 1.21-0.795 0.079-0.617 0.144-1.412 0.404-0.348-0.392-0.828-0.652-0.605-1.614z" fill-rule="evenodd"/>
<path clip-rule="evenodd" d="m164.89 99.483c-0.703 0.505-1.788-0.001-1.612-1.009 0.634 0.23 0.489-0.317 0.806-0.404 0.59 0.147 0.84 0.629 0.8 1.413z" fill-rule="evenodd"/>
<path clip-rule="evenodd" d="m129.58 98.272c0.581 0.025 1.322-0.11 1.616 0.202 0.263 0.889-0.014 0.827-0.404 1.412-0.86-0.096-1.3-0.599-1.22-1.614z" fill-rule="evenodd"/>
<path clip-rule="evenodd" d="m149.35 99.281c0.368 0.306 0.696 0.65 1.212 0.807 0.108 0.714-0.715 0.496-0.604 1.21-0.805-0.137-1.2-0.684-1.212-1.614 0.4 0.067 0.63-0.042 0.6-0.405z" fill-rule="evenodd"/>
<path clip-rule="evenodd" d="m159.44 99.685c0.66-0.053 0.584 0.628 1.01 0.808 0.032 0.57-0.606 0.47-0.606 1.008-0.578-0.093-1.109-0.233-1.21-0.807-0.05-0.65 0.79-0.42 0.81-1.005z" fill-rule="evenodd"/>
<path clip-rule="evenodd" d="m146.12 100.69c0.147 0.618-0.349 0.594-0.2 1.211-0.535-0.002-1.153 0.076-1.412-0.202-0.42-1.4 1.01-1.8 1.61-1.01z" fill-rule="evenodd"/>
<path clip-rule="evenodd" d="m136.64 100.9c-0.009 0.345 0.149 0.523 0.403 0.605-0.225 0.313-0.655 0.42-0.605 1.009h-1.412c0.147-0.618-0.349-0.594-0.2-1.211 0.82 0.08 0.81-0.66 1.81-0.4z" fill-rule="evenodd"/>
<path clip-rule="evenodd" d="m140.27 100.9c-0.031 0.501 0.104 0.837 0.404 1.009-0.487 1.311-2.458 0.116-1.816-0.807 0.27-0.28 0.89-0.2 1.42-0.2z" fill-rule="evenodd"/>
<path clip-rule="evenodd" d="m131.59 101.9c0.152 0.893-0.787 0.694-1.009 1.21-0.271-0.201-0.396-0.545-0.806-0.605v-1.009c0.53-0.41 1.67-0.16 1.82 0.41z" fill-rule="evenodd"/>
<path clip-rule="evenodd" d="m154.8 101.7c1.408 0.528 0.778 1.48-0.2 2.018-0.275-0.466-0.581-0.9-0.605-1.614 0.37-0.03 0.67-0.14 0.8-0.41z" fill-rule="evenodd"/>
<path clip-rule="evenodd" d="m158.23 102.71h1.612c0.795 1.697-1.949 2.154-2.017 0.403 0.36 0.29 0.47 0.19 0.41-0.4z" fill-rule="evenodd"/>
<path clip-rule="evenodd" d="m96.685 104.73c-0.833 0.241-2.116 0.721-2.018-1.21 0.822-0.65 2.075-0.14 2.018 1.21z" fill-rule="evenodd"/>
<path clip-rule="evenodd" d="m136.24 104.33c0.634 0.226 0.456 0.018 1.208 0 0.217 0.188 0.064 0.745 0.608 0.605-0.392 0.282-0.6 0.747-0.809 1.211-0.66-0.31-1.61-0.5-1.01-1.82z" fill-rule="evenodd"/>
<path clip-rule="evenodd" d="m153.59 106.75c-0.55-0.189-0.514-0.966-1.21-1.009 0.357-1.246 1.808-1.516 2.22-0.201-0.07 0.67-0.77 0.71-1.01 1.21z" fill-rule="evenodd"/>
<path clip-rule="evenodd" d="m143.3 105.34c-0.207 0.802-0.881 1.137-2.017 1.008 0.145-0.617-0.349-0.593-0.204-1.21 0.78-0.6 1.55-0.33 2.22 0.2z" fill-rule="evenodd"/>
<path clip-rule="evenodd" d="m133.01 105.13c0.834 0.303 1.665 0.53 1.208 1.614-0.939 0.517-1.836 0.02-2.017-0.807 0.06-0.46 0.96-0.11 0.81-0.8z" fill-rule="evenodd"/>
<path clip-rule="evenodd" d="m147.13 106.95c-1.039 0.165-1.233-0.515-1.21-1.412 0.88-1.05 1.93 0.38 1.21 1.41z" fill-rule="evenodd"/>
<path clip-rule="evenodd" d="m150.56 105.13c0.486 0.557 0.368 1.186 0 1.816-1.17 0.53-1.91-2.08 0-1.82z" fill-rule="evenodd"/>
<path clip-rule="evenodd" d="m157.02 105.34c0.118 0.655-0.138 0.938-0.202 1.413-0.786 0.186-0.798-0.634-1.21-0.404-0.76-0.72 0.74-1.69 1.41-1.01z" fill-rule="evenodd"/>
<path clip-rule="evenodd" d="m91.438 107.56c0.494 0.515 1.672 0.346 1.412 1.614-0.992 0.238-1.543 0.572-2.018-0.403-0.121-0.73 0.617-0.6 0.606-1.21z" fill-rule="evenodd"/>
<path clip-rule="evenodd" d="m134.82 108.16v1.009c-0.618 0.24-1.549 0.328-2.021-0.403 0.33-0.64 1.15-1.1 2.02-0.61z" fill-rule="evenodd"/>
<path clip-rule="evenodd" d="m144.31 107.96c1.084-0.039 0.516 1.484 0.204 1.815-0.671-0.396-1.16-0.661-0.809-1.614 0.29 0.01 0.57 0.02 0.61-0.21z" fill-rule="evenodd"/>
<path clip-rule="evenodd" d="m152.18 108.36c0.084 0.386 0.074 0.869 0.605 0.807-0.146 0.528-0.728 0.619-0.808 1.211-0.636 0.097-0.456-0.619-1.21-0.404-0.36-1.02 0.24-1.62 1.42-1.62z" fill-rule="evenodd"/>
<path clip-rule="evenodd" d="m148.95 108.56c0.427 0.735 0.268 0.931 0 1.816-1.292 0.092-1.168-0.27-1.816-1.009 0.42-0.46 0.78-0.97 1.82-0.81z" fill-rule="evenodd"/>
<path clip-rule="evenodd" d="m137.65 108.77c0.542 0.33 1.034-0.275 1.612 0.202 0.207 0.945-0.331 1.147-0.604 1.614-0.681-0.06-1.083-0.397-1.412-0.808-0.16-0.62 0.69-0.24 0.4-1z" fill-rule="evenodd"/>
<path clip-rule="evenodd" d="m146.33 111.19c0.657-0.053 0.582 0.627 1.009 0.807 0.151 0.622-0.696 0.246-0.404 1.009-1.75 0.15-1.43-1.21-0.61-1.82z" fill-rule="evenodd"/>
<path clip-rule="evenodd" d="m140.07 112.6c0.644 0.38 0.844-0.051 1.614 0.202 0.046 0.718-0.137 1.209-0.606 1.412-1 0.05-1.35-0.88-1-1.61z" fill-rule="evenodd"/>
<path clip-rule="evenodd" d="m106.57 119.66c-0.029 0.644-0.747 0.599-0.807 1.21-2.41 0.37-0.38-3.67 0.81-1.21z" fill-rule="evenodd"/>
<path clip-rule="evenodd" d="m128.97 118.86c0.475 0.621 0.118 0.081 0.809 0-0.11 0.714 0.713 0.496 0.604 1.21-0.71 0.166-0.619 1.13-1.816 0.807-0.25-1.1-0.05-1.31 0.41-2.02z" fill-rule="evenodd"/>
<path clip-rule="evenodd" d="m124.94 121.48c-0.161 2.261-1.639 3.204-3.026 4.239-0.402 1.548-1.828 2.074-2.423 3.43-1.747 0.028-2.021 2.516-3.832 1.814-0.086-1.631 1.563-1.528 2.017-2.622 0.181-0.156 0.456-0.217 0.808-0.202 1.633-1.662 2.739-3.854 4.843-5.044-0.041-0.849 0.767-0.848 0.807-1.615h0.8z" fill-rule="evenodd"/>
<path clip-rule="evenodd" d="m127.36 122.69c0.933 1.197-0.311 2.278-1.412 1.413-0.33-0.95 0.1-1.58 1.41-1.41z" fill-rule="evenodd"/>
<path clip-rule="evenodd" d="m124.94 126.32c-0.197 0.945-0.58 1.707-1.412 2.018-1.43-0.68-0.26-3.1 1.41-2.02z" fill-rule="evenodd"/>
<path clip-rule="evenodd" d="m115.85 132.98c1.123-0.113 1.826 0.19 1.816 1.21-0.749-0.012-0.799 0.68-1.816 0.402-0.23-0.56-0.23-1.04 0-1.61z" fill-rule="evenodd"/>
<path clip-rule="evenodd" d="m112.63 134.39c0.966 0.188 1.318-0.056 2.421 0.2 0.146 0.617-0.348 0.595-0.202 1.212-1.129 0.312-1.143 0.407-2.219 0.2 0.04-0.84-0.33-0.95 0-1.61z" fill-rule="evenodd"/>
<path clip-rule="evenodd" d="m110 138.43c0.316 0.911 0.387 1.177 0 2.018-0.805 0.2-0.608-0.603-1.413-0.403-0.07-1.08 0.43-1.6 1.41-1.62z" fill-rule="evenodd"/>
<path clip-rule="evenodd" d="m107.58 142.67c-0.477 0.666-0.605 1.682-1.816 1.614-0.03-0.643-0.458-0.889-0.403-1.614 0.88-0.44 1.35-0.44 2.22 0z" fill-rule="evenodd"/>
<path clip-rule="evenodd" d="m110.41 142.67h1.412c0.232 0.564 0.232 1.048 0 1.614-0.404 0-0.807-0.002-1.211 0-0.31-0.29-0.18-1.03-0.2-1.61z" fill-rule="evenodd"/>
<path clip-rule="evenodd" d="m108.99 146.5c0.221 0.893-0.342 1.005-0.403 1.615-1.026-0.012-1.025-0.147-1.614-0.808-0.151-0.621 0.696-0.246 0.403-1.009 0.75-0.12 1.17-0.33 1.61 0.2z" fill-rule="evenodd"/>
<path clip-rule="evenodd" d="m99.308 147.1c0.157 0.448 0.424 0.787 0.403 1.412-0.543-0.14-0.39 0.417-0.605 0.606-0.426-0.381-0.829-0.785-1.211-1.212-0.016-0.75 0.792-0.68 1.413-0.81z" fill-rule="evenodd"/>
<path clip-rule="evenodd" d="m103.75 148.72c0.222 1.097-0.81 0.939-1.009 1.614-0.653-0.154-1.056-0.559-1.211-1.21 0.196-0.007 0.157-0.247 0.202-0.404 0.75-0.29 1.5-0.5 2.02 0z" fill-rule="evenodd"/>
<path clip-rule="evenodd" d="m109.2 149.33c0.385 0.379 0.365-0.12 1.009 0-0.099 0.635 0.364 0.711 0.202 1.412-0.18 0.09-0.361 0.177-0.404 0.402-0.571 0.167-0.523-0.283-1.009-0.2-0.32-0.64 0.1-0.89 0.2-1.61z" fill-rule="evenodd"/>
<path clip-rule="evenodd" d="m95.07 151.14c-0.009 0.347 0.15 0.523 0.403 0.605 0.15 0.623-0.553 0.39-0.403 1.01-0.655 0.117-0.939-0.138-1.412-0.201-0.125-1.06 0.345-1.53 1.412-1.41z" fill-rule="evenodd"/>
<path clip-rule="evenodd" d="m91.236 155.18c-0.363 2.598-2.982 2.937-3.632 5.247-2.43 1.337-3.925 3.607-5.65 5.65-0.669 0.064-1.241 0.029-1.412-0.404 0.364-0.981 1.377-1.312 1.614-2.42 0.362 0.024 0.426-0.248 0.807-0.204 1.014-0.878 1.5-2.388 2.422-3.429 0.352-0.397 1.098-0.571 1.413-1.01 0.34-0.475 0.984-1.513 1.614-2.019 0.075-0.059 0.31 0.033 0.403 0 0.566-0.197 0.376-0.709 0.807-0.604 0.32 0.06 0.722-1.14 1.614-0.82z" fill-rule="evenodd"/>
<path clip-rule="evenodd" d="m103.55 155.38c0.898-0.159 1.341 0.138 1.816 0.404 0.053 0.589-0.457 0.619-0.404 1.21h-1.21c-0.25-0.58-0.44-1.07-0.21-1.61z" fill-rule="evenodd"/>
<path clip-rule="evenodd" d="m97.895 155.58c0.792 0.231 0.75 0.042 1.615 0.202 0.107 1.116-0.407 1.61-1.615 1.412-0.128-0.46-0.4-1.21 0-1.61z" fill-rule="evenodd"/>
<path clip-rule="evenodd" d="m101.12 161.43c-1.256 0.11-2.315 0.027-2.22-1.212 1.069-0.57 2.32-0.39 2.22 1.21z" fill-rule="evenodd"/>
<path clip-rule="evenodd" d="m93.254 161.03v1.009c-0.772-0.099-0.645 0.701-1.614 0.403 0.037-0.523-0.646-1.352-0.202-1.614 0.354-0.3 1.217 0.12 1.816 0.2z" fill-rule="evenodd"/>
<path clip-rule="evenodd" d="m85.183 166.68c0.505 0.167 0.792 0.554 1.412 0.605 0.171 0.912-0.342 1.139-0.807 1.413-0.682-0.41-1.261-1.34-0.605-2.01z" fill-rule="evenodd"/>
<path clip-rule="evenodd" d="m79.331 167.49v1.211c-1.16-0.016-0.897 1.391-2.422 1.01-0.564-1.83 0.855-2.18 2.422-2.22z" fill-rule="evenodd"/>
<path clip-rule="evenodd" d="m73.68 172.13c1.818 0.958-0.82 2.785-2.018 3.229-0.105-0.299-0.299-0.509-0.404-0.806 0.308-1.31 1.912-1.32 2.422-2.42z" fill-rule="evenodd"/>
<path clip-rule="evenodd" d="m43.21 194.73c-0.066 0.472-0.243 0.833-0.404 1.211h-1.211c-0.439-1.23 0.647-1.86 1.615-1.21z" fill-rule="evenodd"/>
<path clip-rule="evenodd" d="m39.174 199.17c0.126 1.762-1.463 2.051-2.017 0.808 0.252-1.08 1.254-1.06 2.017-0.81z" fill-rule="evenodd"/>
<path clip-rule="evenodd" d="m43.614 199.77c0.736 0.286 0.906-0.113 1.412 0.402 0.097 0.636-0.288 0.79-0.403 1.212-1.203 0.25-1.409-0.82-1.009-1.61z" fill-rule="evenodd"/>
<path clip-rule="evenodd" d="m68.232 201.79c-0.294 0.312-1.033 0.177-1.614 0.2-0.028-0.375-0.133-0.674-0.404-0.807 0.281-0.87 2.339-0.8 2.018 0.61z" fill-rule="evenodd"/>
<path clip-rule="evenodd" d="m34.735 201.79c0.616-0.146 0.735 0.205 1.21 0.2 0.079 0.819-0.312 1.168-1.21 1.01-0.227-0.63-0.019-0.46 0-1.21z" fill-rule="evenodd"/>
<path clip-rule="evenodd" d="m39.78 204.21h1.413c-0.001 0.941-0.502 1.383-1.211 1.614-0.455-0.36-0.476-1.01-0.202-1.61z" fill-rule="evenodd"/>
<path clip-rule="evenodd" d="m33.524 204.62c0.433 0.644-0.667 1.478-0.807 2.221-0.673-0.217-0.689 0.062-1.412-0.204-0.11-1.53 1.042-1.79 2.219-2.02z" fill-rule="evenodd"/>
<path clip-rule="evenodd" d="m63.792 205.62c0.232 0.564 0.232 1.049 0 1.614h-1.412c-0.532-0.99-0.019-1.98 1.412-1.61z" fill-rule="evenodd"/>
<path clip-rule="evenodd" d="m29.287 208.05c0.536 0.002 1.152-0.077 1.412 0.202 0.239 1.044-0.773 0.841-1.008 1.412-0.206-0.132-0.208-0.463-0.606-0.404-0.146-0.62 0.207-0.74 0.202-1.21z" fill-rule="evenodd"/>
<path clip-rule="evenodd" d="m35.542 209.26c0.497-0.026 0.972-0.029 1.21 0.202 0.21 0.949-0.465 1.015-0.807 1.412-0.205-0.131-0.208-0.465-0.605-0.402-0.146-0.62 0.206-0.74 0.202-1.21z" fill-rule="evenodd"/>
<path clip-rule="evenodd" d="m28.076 210.87c0.236 0.57 0.04 0.857-0.202 1.412h-1.211c-0.566-1.19 0.233-1.82 1.413-1.41z" fill-rule="evenodd"/>
<path clip-rule="evenodd" d="m57.941 210.87c0.763-0.292 0.387 0.556 1.009 0.404 0.119 0.725-0.235 0.977-0.404 1.412-0.885-0.1-1.74-0.176-1.412-1.21 0.224-0.7 0.825 0.2 0.807-0.6z" fill-rule="evenodd"/>
<path clip-rule="evenodd" d="m30.498 211.68c0.614-0.008 0.784 0.427 1.21 0.605 0.031 0.503-0.317 0.626-0.403 1.011-0.709-0.129-1.281 0.042-1.211-1.212 0.343 0.08 0.381-0.16 0.404-0.4z" fill-rule="evenodd"/>
<path clip-rule="evenodd" d="m25.453 213.9c-0.07 0.872-0.471 1.413-1.413 1.413-0.801-0.84 0.152-2.13 1.413-1.41z" fill-rule="evenodd"/>
<path clip-rule="evenodd" d="m43.614 214.91c0.004 0.81-0.65 0.964-1.413 1.008-1.206-1.25 0.578-2.13 1.413-1.01z" fill-rule="evenodd"/>
<path clip-rule="evenodd" d="m26.461 214.5c0.877-0.002 1.378 0.371 1.413 1.21-0.635-0.229-0.49 0.317-0.807 0.404-0.653 0.249-0.154-0.653-0.807-0.404-0.147-0.61 0.348-0.59 0.201-1.21z" fill-rule="evenodd"/>
<path clip-rule="evenodd" d="m32.515 215.31c0.438-0.033 0.092 0.716 0.202 1.01-0.59-0.566-0.63 0.557-1.614 0.202 0.004-0.477-0.347-0.595-0.202-1.212 0.474-0.67 1.551 0.31 1.614 0z" fill-rule="evenodd"/>
<path clip-rule="evenodd" d="m23.435 216.72c-0.256 0.844-0.96 1.053-1.816 0.808v-1.21c0.752-0.15 1.453-0.27 1.816 0.4z" fill-rule="evenodd"/>
<path clip-rule="evenodd" d="m54.712 216.12c0.13 1.005 0.098 0.858-0.202 1.614-1.112 0.169-1.677-0.207-1.614-1.21 1.04 0.3 0.868-0.61 1.816-0.4z" fill-rule="evenodd"/>
<path clip-rule="evenodd" d="m39.78 217.33c0.033 0.639-0.537 0.675-0.404 1.414-2.183 0.3-0.826-3 0.404-1.41z" fill-rule="evenodd"/>
<path clip-rule="evenodd" d="m24.847 218.34c0.316 0.638-0.111 0.886-0.201 1.614-0.536-0.001-1.153 0.076-1.413-0.201-0.097-1.27 0.647-1.73 1.614-1.41z" fill-rule="evenodd"/>
<path clip-rule="evenodd" d="m28.277 218.74c0.875-0.135 1.25 0.23 1.614 0.604-0.068 1.245-0.774 0.981-1.614 0.808v-1.41z" fill-rule="evenodd"/>
<path clip-rule="evenodd" d="m50.677 221.77c-0.189 0.147-0.307 0.367-0.404 0.605-0.265-0.205-0.744-0.197-1.009-0.402-0.354-1.66 1.42-1.31 1.413-0.21z" fill-rule="evenodd"/>
<path clip-rule="evenodd" d="m35.542 221.16c1.134 0.323 0.764 1.612 0 2.018-0.818-0.27-0.728-1.73 0-2.02z" fill-rule="evenodd"/>
<path clip-rule="evenodd" d="m44.219 221.97c1.076-0.135 1.766 0.117 2.018 0.807-0.145 0.661-0.827 0.788-1.614 0.806-0.179-0.5-0.605-0.75-0.404-1.62z" fill-rule="evenodd"/>
<path clip-rule="evenodd" d="m26.865 223.58c0.175 0.782-0.338 0.874-0.605 1.212-0.802 0.062-1.092-0.387-1.009-1.212 0.823-0.16 0.694-0.03 1.614 0z" fill-rule="evenodd"/>
<path clip-rule="evenodd" d="m33.928 226.41c0.709-0.037 0.868 0.477 1.21 0.807-0.143 0.53-0.438 0.908-1.21 0.808-0.401-0.4-0.129-1.16 0-1.62z" fill-rule="evenodd"/>
<path clip-rule="evenodd" d="m22.83 226.81c0.649 0.093 1.171 0.31 1.009 1.212-0.505-0.034-0.632 0.31-0.807 0.604-0.37-0.369-0.929-0.55-0.808-1.412 0.295 0.29 0.639 0.16 0.606-0.4z" fill-rule="evenodd"/>
<path clip-rule="evenodd" d="m38.166 226.81c0.505-0.266 0.489 0.941 0.807 0.204 0.935 1.125-1.268 2.026-1.615 0.807-0.265-0.87 0.961-0.25 0.808-1.01z" fill-rule="evenodd"/>
<path clip-rule="evenodd" d="m18.39 227.42c0.635-0.097 0.789 0.287 1.211 0.404 0.096 0.635-0.288 0.789-0.404 1.21-0.918 0-1.187-0.87-0.807-1.61z" fill-rule="evenodd"/>
<path clip-rule="evenodd" d="m14.959 229.44c-0.053 0.62-0.438 0.906-0.605 1.412-0.506-0.483-0.639-0.087-1.009-0.604-0.094-1.05 1.066-1.56 1.614-0.81z" fill-rule="evenodd"/>
<path clip-rule="evenodd" d="m31.506 229.03c0.78 0.229 1.657 0.361 1.413 1.616-0.866 0.006-1.333 0.42-1.816-0.204-0.232-0.84 0.424-0.79 0.403-1.42z" fill-rule="evenodd"/>
<path clip-rule="evenodd" d="m19.802 229.84h1.009c0.176 0.802 0.176 1.014 0 1.816-0.714-0.178-0.496-0.026-1.21-0.202-0.222-0.55-0.039-1.04 0.201-1.62z" fill-rule="evenodd"/>
<path clip-rule="evenodd" d="m24.04 229.84c0.183 0.792 0.247 1.258-0.201 1.816-0.346 0.043-0.523-0.345-0.606 0-0.581-0.7-0.464-1.97 0.807-1.82z" fill-rule="evenodd"/>
<path clip-rule="evenodd" d="m15.968 230.24c0.76-0.089 0.919 0.426 1.21 0.807-0.089 0.583-0.425 0.919-1.008 1.01-0.236-0.61-0.612-1.08-0.202-1.82z" fill-rule="evenodd"/>
<path clip-rule="evenodd" d="m39.174 231.05c0.502-0.031 0.625 0.316 1.009 0.403v1.211c-0.326-0.057-0.347 0.19-0.605 0.201-0.551 0.146-0.407-0.4-0.807-0.403-0.232-0.83 0.424-0.78 0.403-1.41z" fill-rule="evenodd"/>
<path clip-rule="evenodd" d="m11.327 231.66h1.211c-0.098 0.636 0.619 0.457 0.404 1.21-0.074 0.465-0.884 0.192-0.808 0.807-1.134-0.22-0.919-0.87-0.807-2.02z" fill-rule="evenodd"/>
<path clip-rule="evenodd" d="m14.757 232.06c0.592 0.013 0.75 0.46 1.009 0.806 0.031 0.503-0.317 0.626-0.403 1.011-0.978-0.06-1.122-0.053-1.413-1.011 0.074-0.47 0.883-0.19 0.807-0.81z" fill-rule="evenodd"/>
<path clip-rule="evenodd" d="m34.129 232.26c0.162 0.108 0.327 0.21 0.606 0.202 0.11 0.918-0.104 1.511-0.606 1.816-0.916-0.17-0.683-1.78 0-2.02z" fill-rule="evenodd"/>
<path clip-rule="evenodd" d="m17.987 232.87h1.008c-0.146 0.618 0.349 0.593 0.202 1.211-0.572-0.033-0.394 0.683-1.21 0.403-0.309-0.64-0.072-0.89 0-1.61z" fill-rule="evenodd"/>
<path clip-rule="evenodd" d="m35.542 233.27h1.21c-0.033 0.235 0.044 0.359 0.202 0.402-0.017 0.71-1.036 1.084-1.614 0.606-0.083-0.49 0.369-0.44 0.202-1.01z" fill-rule="evenodd"/>
<path clip-rule="evenodd" d="m28.277 233.88c0.594 0.146 0.851 0.627 0.807 1.412-0.531 0.747-1.405-0.118-1.614 0-0.631-0.8 0.882-0.99 0.807-1.41z" fill-rule="evenodd"/>
<path clip-rule="evenodd" d="m38.166 234.48c0.536 0.004 1.152-0.075 1.413 0.202 0.01 0.616-0.183 1.026-0.605 1.211-0.735 0-0.888-0.59-0.808-1.41z" fill-rule="evenodd"/>
<path clip-rule="evenodd" d="m35.542 235.49c0.231 0.564 0.231 1.051 0 1.616-1.576 0.3-1.458-1.89 0-1.62z" fill-rule="evenodd"/>
<path clip-rule="evenodd" d="m32.313 237.51c0.167 0.569-0.284 0.523-0.201 1.01-0.46 0.275-0.759-0.521-0.807 0-0.301-0.171-0.292-0.65-0.404-1.01 0.382-0.4 0.953-0.1 1.412 0z" fill-rule="evenodd"/>
<path clip-rule="evenodd" d="m28.681 237.71c0.624-0.018 0.601 0.609 0.605 1.213-0.343-0.076-0.381 0.155-0.403 0.401-0.263-0.408-0.864-0.48-1.211-0.806 0.114-0.93 0.949 0.01 1.009-0.8z" fill-rule="evenodd"/>
<path clip-rule="evenodd" d="m33.928 238.32c0.4 0.337 0.256-0.019 0.807 0-0.15 0.621 0.553 0.388 0.403 1.008-0.532-0.061-0.521 0.423-0.605 0.809-0.753 0.215-0.319-0.757-1.009-0.606-0.097-0.64 0.288-0.79 0.404-1.21z" fill-rule="evenodd"/>
<path clip-rule="evenodd" d="m35.945 238.92h1.211c0.353 0.711-0.086 1.415-1.211 1.21-0.018-0.75-0.225-0.57 0-1.21z" fill-rule="evenodd"/>
<path clip-rule="evenodd" d="m30.094 240.33c0.753-0.082 1.184 0.16 1.211 0.806-0.13 0.609-0.555 0.925-1.413 0.807-0.088-0.7 0.079-1.13 0.202-1.62z" fill-rule="evenodd"/>
<path clip-rule="evenodd" d="m28.277 241.75c0.015 0.821-0.746 0.867-1.614 0.807-0.889-1.52 1.169-2.06 1.614-0.81z" fill-rule="evenodd"/>
<path clip-rule="evenodd" d="m29.69 243.36h0.807c0.465 0.689 0.428 1.523-0.202 2.019-0.758 0.15-0.683-0.529-1.009-0.809-0.034-0.57 0.683-0.39 0.404-1.21z" fill-rule="evenodd"/>
<path clip-rule="evenodd" d="m27.067 243.56c0.477-0.103 1.333 0.975 1.21 0.2 0.822 2.25-2.979 1.27-1.21-0.2z" fill-rule="evenodd"/>
<path clip-rule="evenodd" d="m116.86 63.968c0.639 1.337 0.013 2.535 0 4.238 1.25 0.333 1.992-1.473 3.835-1.211 0.427 0.85 0.098 2.458 0.2 3.633 1.511 0.683 2.361-2.279 4.036-0.807-0.291 0.65-0.19 1.693-0.2 2.623 1.251-0.319 1.898-0.493 2.824-1.211 0.696-0.159 0.851 0.225 1.211 0.404 0.403-0.672 1.555-0.599 1.412-1.816 0.737 0.059 1.111-0.99 1.614-1.614 0.285-0.353 0.538-0.623 0.808-1.009 0.491-0.705 1.143-1.6 2.017-2.018 0.508-1.646 2.089-2.218 2.624-3.834 2.971-1.469 4.254-4.625 7.062-6.255 1.255 0.158 1.633 1.194 2.221 2.018 2.229-2.237 3.94-3.939 5.65-6.457 0.74-0.315 0.773-0.169 1.21-0.605 0.529-0.995 1.433-1.709 2.019-2.22 0.174-0.151-0.094-0.324 0.202-0.403 0.93-0.249 1.458-2.033 2.22-2.826-0.006 0.007 0.741-0.149 0.807-0.202 0.549-0.437 0.769-1.041 1.01-1.614 1.783-0.32 2.255-2.965 3.633-3.027 1.012-2.417 3.484-3.376 4.641-5.65 0.954-0.054 1.176-0.84 1.412-1.614 1.064-0.349 1.402-1.421 2.421-1.816 0.133-0.607 0.646-0.834 0.808-1.412 0.961-0.048 1.163-0.855 1.614-1.413 1.9-1.073 2.764-3.047 4.238-4.439 0.783-0.741 1.807-1.114 2.623-1.816 1.509-1.299 3.207-2.973 4.438-4.036 0.227-0.194 0.371-0.637 0.606-0.807 0.448-0.323 1.446-0.635 2.018-1.009 1.488-0.974 2.58-2.055 4.237-3.026 0.121-0.071-0.086-0.456 0.202-0.404 0.47 0.086 1.885-1 2.622-1.614 0.393-0.326 0.956-0.561 1.01-1.21 1.115-0.732 3.224-1.232 4.239-2.624 0.877-0.008 1.284-0.583 2.017-1.211 0.495-0.424 0.558-0.344 1.212-0.605 0.174-0.071 0.102-0.362 0.2-0.403 0.651-0.271 1.445-0.08 2.018-0.606 0.209-0.192 0.291-0.591 0.606-0.807 0.111-0.076 0.519 0.1 0.604 0 0.297-0.337 0.3-0.364 1.212-0.807 0.591-0.288 2.434-0.915 3.833-1.009 0.598-1.084 2.653-0.709 3.632-1.412 1.93 0.705 2.436 0.748 4.44 0.403 2.216 1.147 4.083 2.644 5.852 4.238 0.475 1.566 0.547 3.534 1.01 5.045 0.075 0.25 0.069 0.856 0.604 0.806-0.874 1.418-0.453 3.307-0.604 4.844-0.096 0.957-0.342 1.92-0.606 2.825-0.247 0.842-0.686 1.369-1.01 2.219-0.754 1.988-1.359 4.456-2.42 6.255-0.352 0.596-0.751 0.893-1.009 1.413-0.916 1.837-1.895 4-2.624 6.053-4.479 4.466-7.43 10.462-11.704 15.134-0.085 0.924-0.723 1.295-0.806 2.22-1.606 1.489-3.071 3.117-4.037 5.247-0.571-0.033-0.47 0.606-1.008 0.605-2.161 4.094-5.968 6.545-8.073 10.695-1.487 0.665-2.26 2.046-3.026 3.431-1.158 0.792-2.019 1.882-2.623 3.229h-0.808c-1.041 1.583-2.263 2.983-3.633 4.238-1.776 4.008-5.084 6.485-7.667 9.686 0.005 0.476-0.349 0.594-0.202 1.21-0.775 0.088-1.195 0.93-1.614 1.412-0.425 0.488-1.184 1.017-1.21 1.816-0.833-0.499-0.38 0.438-1.212 0.404-3.515 5.498-8.365 9.662-12.511 14.529-0.83-0.091-0.627 0.853-1.615 0.605-0.677 1.542-2.171 2.267-3.229 3.431 0.443 0.634 1.256 0.897 2.02 1.21 0.486 1.534-2.075 1.664-2.624 2.825-1.245-0.024-1.916 0.803-2.824 1.412-0.623 0.418-0.98 0.521-1.816 1.413-0.725 0.771-1.156 0.885-2.019 1.614-1.312 1.112-2.188 2.658-3.431 3.834-0.607 0.575-1.554 1.051-2.22 1.614-0.335 0.283-0.65 0.715-1.009 1.009-0.335 0.275-0.925 0.354-1.212 0.605-1.4 1.226-2.161 3.341-4.034 4.035-0.088 0.386-0.436 0.507-0.402 1.01-2.332 1.57-4.332 3.472-5.652 6.053-2.063 1.098-2.727 3.595-5.045 4.44-0.703 1.978-2.346 3.572-3.833 5.045-0.381 0.375-0.798 1.221-1.412 1.009 0.082 0.485-0.368 0.438-0.202 1.008-1.178 0.303-1.253 1.708-2.423 2.019-0.808 1.814-2.147 3.099-3.631 4.238-3.195 3.867-6.121 8.004-9.887 11.3-2.224 3.224-5.116 5.782-7.87 8.476 0.167 0.569-0.284 0.522-0.202 1.008-2.395 1.305-3.696 3.703-5.852 5.247-0.161 0.376-0.336 0.739-0.403 1.21-1.898 0.7-3.099 2.831-4.642 4.44-0.643 0.67-1.384 1.11-2.018 1.816-0.572 0.634-0.879 1.616-1.816 1.816-0.026 0.848-0.95 0.798-1.009 1.612-0.501-0.029-0.625 0.319-1.009 0.404-1.47 2.029-3.483 3.513-4.641 5.853-2.125 0.966-2.852 3.397-4.237 5.045-0.667 0.793-1.687 1.478-2.421 2.421-0.382 0.49-0.846 1.074-1.614 1.412-0.302 1.514-1.688 1.946-2.019 3.432-0.326 0.057-0.347-0.19-0.605-0.203-1.356 2.075-3.291 3.571-4.439 5.853-0.502-0.031-0.625 0.317-1.009 0.404-0.648 1.839-2.443 2.535-3.026 4.438-0.56 0.113-0.651 0.694-1.211 0.808-2.432 2.748-4.485 5.873-6.659 8.88-0.602 0.003-0.686 0.523-1.21 0.604-2.561 3.225-4.292 7.277-7.467 9.888-0.034 0.572-0.37 0.842-0.403 1.413-1.506 1.144-2.08 3.151-3.431 4.439-1.058 1.008-2.507 1.446-3.632 2.422-0.337 0.049-1.997-0.805-2.421-0.606-1.261-1.029-2.639-2.07-4.238-2.22-0.219-1.127-1.917-0.773-2.017-2.019-2.82-0.273-3.647-2.542-6.458-2.824-0.351-0.523-0.911-0.838-1.413-1.212h-1.816c-0.421-0.593-1.183-0.757-2.018-1.209-0.607-0.331-1.13-0.81-1.816-1.212-1.394-0.817-3.217-1.068-4.439-1.816-0.149-0.092-1.22-1.106-1.009-0.808-0.509-0.721-1.41-1.56-1.614-2.219-0.127-0.41 0.067-1.388 0-2.018-0.208-1.987-1.183-3.089-0.202-5.045 0.213-0.426 0.911-0.995 2.018-1.412 2.26-5.946 6.532-9.882 9.686-14.933 2.314-2.421 4.337-6.811 7.063-9.483 1.27-3.643 4.348-5.474 5.852-8.88 1.918-1.849 2.943-4.59 5.045-6.255 2.215-4.145 4.85-6.628 7.063-10.695 0.56-0.113 0.65-0.694 1.21-0.807 0.101-1.313 1.429-1.397 1.413-2.826 1.278-0.537 1.794-1.837 2.22-3.229 2.648-2.359 4.266-6.262 6.659-8.273 0.083-1.062 1.016-1.272 1.009-2.422 1.697-0.455 1.566-2.737 3.229-3.229 0.026-0.995 1.137-1.274 1.614-2.017 0.148-0.233 0.026-0.759 0.202-1.01 0.163-0.231 0.622-0.159 0.807-0.404 0.24-0.315 0.272-0.911 0.605-1.412 0.42-0.632 0.741-0.993 1.211-1.816 0.116-0.202 0.545-0.287 0.605-0.402 0.179-0.347-0.007-0.889 0.202-1.212 0.102-0.157 0.463-0.174 0.605-0.403 0.263-0.424 0.717-1.406 1.412-1.613 0.457-1.359 1.283-2.35 2.22-3.229 0.11-0.293-0.236-1.043 0.201-1.009 1.504-1.903 3.463-4.98 4.844-7.667 0.326-0.058 0.347 0.19 0.605 0.2 1.286-2.884 3.35-4.99 4.439-8.071h0.605c1.159-2.743 3.274-4.528 4.439-7.264 1.592-0.56 1.637-2.668 3.229-3.229 0.661-2.703 3.047-3.68 3.632-6.458 1.2-1.108 2.206-2.367 3.229-3.632 0.155-0.193 0.031-0.63 0.201-0.807 0.361-0.371 0.819-0.595 1.211-1.211 0.423-0.664 0.589-1.558 1.009-2.219 0.122-0.193 0.457-0.049 0.605-0.202 0.191-0.199 0.046-0.797 0.202-1.009 0.216-0.293 0.553-0.482 0.808-0.807 0.188-0.241 0.376-0.523 0.605-0.807 1.649-2.042 4.014-4.277 5.045-7.062 1.197-0.754 1.563-2.338 2.825-3.027-0.027-0.498-0.03-0.972 0.202-1.211 0.505-0.335 0.953-0.615 1.614-1.21 0.03-0.642 0.457-0.888 0.403-1.614 0.735 0.196 0.094-0.983 1.009-0.605 0.893-2.874 3.46-4.073 4.036-7.265 0.915 0.06 0.705-1.371 1.816-1.815 0.619-2.341 2.418-3.501 3.229-5.651 2.2-0.566 1.58-4.007 4.41-3.999zm56.51 25.829c-0.714-0.094-1.273-0.34-1.413-1.008 0.465 0.062 0.225-0.584 0.605-0.606 0.639-0.027 1.102 0.421 1.614 1.009 1.65-2.116 3.284-4.249 5.045-6.256-0.034-0.712-1.45-1.093-0.606-2.017 1.235-0.361 0.927 0.823 1.816 0.807 0.352-0.725 0.857-1.296 1.009-2.22 2.369-2.003 4.118-4.626 6.055-7.062 0.853 0.104 1.491-1.053 1.01-1.614-0.21 0.176-0.802 0.176-1.01 0-0.396-1 0.007-1.599 1.21-1.413 0.592 0.388-0.053 1.243 0.606 1.211 0.661-1.086 1.883-1.614 2.219-3.027 1.607-0.742 2.62-2.064 3.432-4.036 0.123-0.082 0.338 0.265 0.404 0.201 0.757-0.731 1.487-2.485 2.219-3.43h0.605c1.212-3.026 4.151-4.324 4.841-7.87 0.943-0.202 1.33-0.957 1.616-1.816 0.874 0.203 0.562-0.513 0.808-0.807 0.206-0.25 0.674-0.245 0.807-0.404 0.938-1.13 1.628-2.641 2.219-4.036 1.358-1.333 2.549-2.833 3.432-4.642-0.037-0.635-1.087-0.258-1.01-1.008 0.097-0.239 0.216-0.457 0.404-0.606 0.915-0.591 0.538 0.632 1.412 0.606 1.076-2.624 2.843-4.555 3.835-7.265 0.277 0.009 0.443-0.095 0.604-0.201 0.084-1.261 0.026-0.65 0.809-1.211 1.735-3.847 3.396-7.771 4.236-12.511 0.667 0.581 0.447-0.939 0.606-1.614 0.311-1.301 0.938-2.921 1.01-4.238 0.142-2.681-0.617-5.362-1.212-7.466-1.202-0.411-2.002-1.228-2.824-2.018-2.647-0.058-5.139-1.616-7.063 0-2.102-0.125-3.721 1.23-6.055 1.816-0.097 0.239-0.214 0.457-0.402 0.605-1.865 0.69-3.432 1.681-5.247 2.422-0.032 0.237 0.035 0.572-0.201 0.605-1.914 0.919-2.871 1.843-4.642 2.624 0.087 0.759 0.84 0.854 0.402 1.614-0.849 0.594-0.928 0.072-1.612-0.404-2.277 1.826-4.946 3.261-7.064 5.247-0.616-0.146-0.734 0.206-1.209 0.202-2.617 3.034-6.263 5.037-8.677 8.273-2.556 1.683-3.879 4.598-6.661 6.054-0.213 1.13-1.274 1.416-2.017 2.017 0.168 0.571-0.285 0.523-0.202 1.009-0.827 0.288-0.954 0.794-1.21 1.211-0.067 0.107-0.514 0.069-0.606 0.201-0.104 0.151-0.063 0.665-0.201 0.807-1.124 1.16-3.201 1.779-3.229 3.834-0.729 0.012-0.978 0.502-1.614 0.605-0.805 1.685-2.638 2.341-3.027 4.439-3.333 2.383-4.93 6.506-8.272 8.878-0.654 1.837-1.886 3.093-2.625 4.844-0.351-0.016-0.627 0.044-0.808 0.201 0.084 0.486-0.368 0.439-0.2 1.009-1.891 1.01-2.427 3.73-3.028 6.054-0.184 0.713 0.279 1.863-0.807 2.017-1.042-1.411 0.165-3.084 0.606-4.843 0.164-0.655 0.026-1.459 0.2-2.219 0.477-2.071 1.723-3.224 0.404-4.238-0.889 1.46-0.892 4.236-1.613 5.247-0.683 0.956-0.988 3.954-1.212 5.852-0.338 2.892-0.73 6.167-0.403 8.273 0.231 1.485 1.169 3.159 0 4.641-0.381 0.045-0.445-0.228-0.807-0.201 0.181-2.128 0.024-2.806-0.807-4.037 0.621-1.262-0.313-2.315-0.403-3.632-0.293-4.229 0.916-8.911 1.008-12.713-3.333 0.702-3.978 4.095-6.457 5.65-2.627 4.166-6.309 7.279-9.081 11.301 0.593 0.081 0.684 0.662 1.212 0.807 0.946-0.805 0.174-1.502 0.604-2.421 0.45 0.156 1.094 0.117 1.212 0.605 0.519 4.169-2.746 3.933-3.633 1.413 0.108 0.715-0.716 0.497-0.605 1.211 0.783 0.557 1.044 3.219-0.404 3.229-0.723-0.084-0.058-1.556-0.807-1.614-1.061 0.486-1.376 1.719-2.22 2.421 0.167 0.571 1.239 0.24 1.614 0.605 0.116 0.355-0.245 1.186 0.202 1.211 0.696-1.237 0.666 0.851 1.614 0.605 0.757-1.008-0.608-1.327-0.807-2.019 0.301-0.236 0.236-0.838 0.807-0.806 0.458-0.104 0.73 0.485 1.01 0.806 1.501 1.736 0.229 3.636-2.02 4.037-0.707-0.453-1.233-1.646-0.807-2.624-0.88 0.138-1.293-0.142-2.623-0.202 0.101 0.841-0.591 0.89-0.403 1.816 0.622 0.049 1.14 0.205 1.614 0.403-0.071 0.944 0.435 1.314 0.605 2.019-0.181 1.08-1.461 2.581-0.605 3.43 0.006-0.648 0.573-0.09 1.21-0.404 1.113 0.635 1.959 1.539 2.624 2.623-0.203 0.27-0.333 0.609-0.605 0.808-0.477-0.062-0.376-0.701-1.01-0.605-0.232 0.493-0.377 1.742-0.201 2.019 1.339-0.137 2.847-2.195 4.035-0.606-0.074 1.271-0.776 1.914-0.807 3.229 0.812-0.264 1.626-0.525 2.825-0.404 0.822 1.706-0.199 2.993-0.202 4.843 1.077 0.27 0.94-0.673 2.019-0.403 0.126 0.344 0.608 0.332 0.808 0.605 0.203 1.683-0.638 2.324-0.606 3.834 0.308 0.431 0.819 0.658 0.807 1.412-0.157 0.044-0.233 0.169-0.2 0.403-0.699 0.164-0.854-0.377-1.212 0-0.241 0.556-0.437 0.843-0.2 1.413 2.149-0.691 2.213-1.581 4.236-2.019 1.406 1.01-0.489 3.381 0 4.641 1.159-0.485 1.383-0.654 2.017-1.614-0.525-0.086-1.373-0.149-1.208-1.413 0.473-0.064 0.755-0.318 1.412-0.202 0.275 0.26 0.198 0.876 0.2 1.413h1.816c0.552 1.367-0.52 2.474-0.2 4.237 1.364-0.72 2.909-1.259 3.832-2.422 1.84-0.559 1.731-0.207 3.633-0.807 0.003 0.266 0.354 0.184 0.404 0.403 0.138 0.878-0.365 1.117-0.809 1.412 0.076-0.612-0.656-0.418-1.008-0.605 0.031 1.242-0.437 1.986-0.404 3.229 2.023-0.746 3.488-3.088 5.449-3.229 0.771-1.298 2.993-3.798 4.036-3.632 0.188-0.82 0.971-1.046 1.612-1.413 1.991-2.988 5.502-4.455 7.266-7.668-0.257-0.483-0.736-0.743-0.604-1.614 1.017-0.277 1.064 0.414 1.816 0.403 3.65-3.536 6.88-7.5 10.08-11.503zm-59.33-19.776c-0.031-0.502 0.317-0.625 0.404-1.009-0.6-0.24-0.86 0.851-0.4 1.009zm8.68 3.027c-0.146 0.33 0.4 0.877 0.403 0.404-0.289-0.045 0.188-1.005 0-1.614-1.14-0.028-2.492 1.382-3.429 2.219-0.043-0.244-0.225-0.124-0.404 0-0.239-1.777 0.03-2.729 0-4.843-1.694 0.292-2.981 1.564-3.432 3.632 0.497 0.341 1.547-0.308 1.616 0.808-0.079 0.551-0.854 0.938-1.213 0.605-0.107 0.773-0.981 1.833-0.403 2.624 1.021-0.611 2.128 0.424 1.816 1.816 0.454 0.153 1.108-0.096 1.412 0.605-0.345 0.258-0.004 1.206-0.604 1.21-0.571-0.034-0.841-0.37-1.412-0.403-0.122 0.726 0.072 1.138 0.604 1.21 0.08-0.66 0.988-0.491 1.615-0.605 1.084-2.157 5.476-3.502 3.633-6.659-0.325 1.087-1.395 1.432-2.02 2.22-0.522-0.285-0.963-0.652-0.807-1.614 1.21-0.012 1-1.559 2.62-1.615zm-15.14 5.247c-1.271 2.295-3.131 3.999-4.036 6.659h-0.606c-1.132 2.903-3.767 4.305-4.641 7.466h-0.605c-1.154 2.479-3.169 4.096-4.439 6.458-0.289-0.079-0.341-0.243-0.605 0-1.018 1.673-1.878 3.504-3.229 4.843-0.052 1.159-1.028 1.395-1.211 2.421-2.779 1.997-3.589 5.962-6.256 8.071-1.077 2.421-2.671 4.324-4.439 6.054-0.625 1.91-2.183 3.276-3.229 4.843-0.646 0.967-0.795 2.363-2.018 2.826-1.431 2.739-2.455 5.886-4.843 7.667-1.261 2.506-3.208 4.327-4.238 7.063-0.288 0.078-0.341 0.241-0.606 0-1.118 2.916-3.613 4.457-4.641 7.465-0.771-0.164-0.238 0.973-1.009 0.809-0.066 0.742-0.498 1.116-0.605 1.815-0.916 0.361-1.139 1.416-1.614 2.221-2.7 2.68-4.995 5.768-6.861 9.281-1.542 0.677-1.678 2.761-3.229 3.431-0.659 2.366-2.81 3.243-3.43 5.651-0.299 0.104-0.508 0.297-0.807 0.401-1.925 3.524-4.61 6.287-6.861 9.484-0.016 1.35-1.383 1.918-2.018 2.826-0.373 0.533-0.485 1.311-0.807 1.815-1.124 1.766-2.668 3.076-3.833 4.642-0.308 0.413-0.343 1.007-0.605 1.412-1.072 1.66-2.76 2.894-3.43 4.843-0.42 0.118-0.653 0.424-1.009 0.605-1.064 2.636-3.266 4.134-4.238 6.861-1.359 0.793-2.214 2.091-2.421 4.035-1.27 1.354-2.596 2.65-3.431 4.44-1.115 0.701-1.664 1.967-2.219 3.229-1.795 1.636-3.389 3.472-4.037 6.255-0.767 0.376-0.956 1.332-1.614 1.816-0.174 2.931-2.643 4.607-1.816 7.871 1.213-0.201 1.64-1.186 2.22-2.021 1.25 0.322 1.693-1.579 3.43-1.412 2.547-2.44 5.479-4.894 7.87-7.465 0.709-0.763 1.549-1.534 2.422-2.019 0.437-1.043 1.213-1.746 2.017-2.422 0.511 0.432 1.065 0.819 1.211 1.615-1.417 0.886-2.292 2.742-3.633 3.833-0.209 0.171-0.583 0.053-0.807 0.202-0.158 0.106-0.069 0.477-0.202 0.605-0.174 0.17-0.632 0.033-0.808 0.202-0.799 0.771-0.78 1.324-1.614 1.412-1.952 2.958-5.354 4.466-6.255 8.476 1.594 0.472 2.045 0.92 3.229 0.404 0.655 1.477 3.252 0.357 4.238-0.202 0.791 1.214 2.363 0.436 4.036 0.807 1.213-0.737 1.803-2.099 3.431-2.421-0.147-0.839 0.645-0.646 0.605-0.606 0.098-0.097-0.103-0.514 0-0.605 0.073-0.065 0.761-0.236 1.009-0.404 0.131-0.087 0.019-0.302 0.202-0.402-0.02 0.012 0.181 0.206 0.403 0 1.154-1.062 1.667-2.879 3.027-3.431 0.625-2.2 2.534-3.116 3.026-5.448 0.754-0.322 1.042-1.11 1.816-1.412-0.171-0.845 0.392-0.953 0.403-1.614 2.807-2.708 4.825-6.206 7.466-9.08 0.695-2.737 3-3.862 3.834-6.458 0.523-0.284 0.931-0.682 1.413-1.009-0.083-0.486 0.369-0.438 0.202-1.01 1.031-0.851 2.253-1.515 2.624-3.026 1.675-0.881 2.165-2.948 4.036-3.631 0.63-1.484 2.08-2.189 3.026-3.23 0.615-0.675 0.936-1.844 1.614-2.421 0.11-0.094 0.346 0.265 0.404 0.202 0.667-0.724 1.057-1.704 1.816-2.422 0.965-0.911 2.459-1.479 2.825-3.026 0.288 0.078 0.341 0.241 0.606 0 0.376-1.171 1.394-1.7 1.614-3.028 1.448-1.041 2.424-2.552 3.833-3.631-0.313 0.718 0.686 0.121 0.606 0.605-0.054 0.753-0.612 1.002-0.606 1.816-3.518 2.197-4.826 6.608-8.475 8.676-0.831 0.744-1.347 2.127-2.219 2.826-0.109 0.087-0.514-0.104-0.605 0-0.935 1.043-1.208 2.185-2.018 3.026-0.23 0.238-0.589 0.578-0.807 0.807-0.4 0.419-1.362 1.626-1.614 1.816-0.166 0.126-0.313-0.265-0.605 0-0.82 0.742-1.279 1.778-2.019 2.624-0.847 0.969-2.211 1.596-2.421 3.026-1.861 0.56-1.783 3.06-3.632 3.631 0.146 0.617-0.206 0.735-0.201 1.212-1.062 0.147-0.805 1.617-1.816 1.816-1.002 2.831-3.293 4.375-4.439 7.062-1.847 0.778-2.146 3.102-3.833 4.036-0.031 0.643-0.458 0.889-0.404 1.614-1.177-0.304-0.235 1.514-1.412 1.21-0.046 1.772-1.567 2.066-1.816 3.633-1.535 1.544-3.217 4.424-4.237 6.661-0.681 1.487-0.916 2.437-1.413 4.034-0.286 0.918-0.786 1.434-0.807 2.221-0.045 1.634 0.957 3.106 1.21 4.843 0.9 0.579 1.755 1.203 2.219 2.22 2.338 0.773 3.61-0.677 5.045-1.412 0.4-0.516-0.209-0.93 0.202-1.212 0.494-0.461 1.126 0.568 1.816 0.202 3.285-4.452 7.03-8.44 9.888-13.318 0.457-0.058 1.054-0.475 1.413-0.806 0.948-0.884 0.901-2.009 1.815-2.826 0.112-0.101 0.353 0.113 0.606-0.202 0.949-1.181 1.43-2.421 2.219-3.431 0.762-0.974 2.077-2.78 3.027-2.824 0.902-2.527 3.093-3.77 4.237-6.055 0.412 0.405 0.396-0.089 0.808-0.201 0.556-0.924 0.919-1.855 1.815-2.826 0.319-0.345 0.874-0.448 1.211-0.806 0.509-0.54 0.521-1.014 1.009-1.412 0.487-0.401 0.47-0.291 1.009-1.011 0.934-1.246 1.73-2.347 2.623-3.43 1.207-1.465 2.811-2.48 3.834-3.833 0.231-0.309-0.002-0.687 0.202-1.01 0.093-0.146 0.604-0.337 0.807-0.606 0.676-0.9 1.08-1.762 1.614-2.623 0.926-0.047 1.317-0.776 1.614-1.21 0.201-0.296 0.413-0.368 0.605-0.605 0.942-1.173 1.938-3.069 3.026-3.835 0.167-0.116 0.603-0.017 0.808-0.2 0.118-0.106 0.082-0.489 0.201-0.606 1.175-1.157 2.849-2.067 3.431-3.632 0.567 0.01 0.552-0.879 1.009-0.404 1.28-2.217 3.325-3.67 4.843-5.65 3.494-3.3 7.019-6.569 9.888-10.492h0.606c0.929-2.301 3.485-2.973 4.238-5.448 1.334-0.077 1.281-1.544 2.421-1.816 2.103-3.278 4.99-5.772 7.062-9.08 2.435-1.468 3.845-3.957 5.651-6.055 0.315-0.087 0.171-0.636 0.807-0.402 0.614-0.867 1.056-1.904 2.219-2.22 2.414-4.852 7.623-6.907 9.485-12.31 2.617-2.093 5.064-4.353 6.86-7.265 0.647 0.124 0.276-0.727 0.809-0.202 0.463-1.852 2.427-2.963 3.229-5.044 0.525-1.372 0.354-2.909 1.008-4.44-1.942 0.817-3.291 3.301-6.053 2.624-0.142-1.552 0.34-2.484 0.2-4.036-1.105 0.719-2.455 1.546-3.633 1.614-1.441-1.013 0.282-3.089-0.403-4.439-1.975 1.723-2.454 4.945-4.842 6.256-0.082-0.389-0.783-0.16-0.605-0.807 0.65-1.435 2.279-1.891 2.422-3.834-0.583 0.258-1.24 0.068-1.412-0.606 0.352-2.138 1.378-4.673 1.209-6.659-1.209 0.875-2.1 2.07-3.43 2.825-0.124-0.28-0.778-0.03-0.808-0.404-0.352-2.349 1.369-4.619 0.202-6.457-0.344 0.7-1.358 0.236-2.219 0.403-0.72 0.14-1.57 0.961-2.422 0.606-0.771 0.643-1.211 1.614-2.423 1.816-0.439 0.905-1.111 1.578-2.017 2.018-0.726 1.181-1.875 2.937-3.028 3.027 0.03 1.374-1.076 1.614-1.21 2.824-1.832 1.397-2.792 3.666-4.642 5.045-0.287-0.386-0.766-0.579-0.807-1.21 0.894-1.058 1.748-2.155 2.826-3.027-0.508-1.964 1.104-2.476 1.816-3.43 0.251-0.338 0.112-0.95 0.403-1.413 0.506-0.802 1.552-0.894 1.413-2.018 1.776-0.914 2.727-2.655 4.438-3.632 0.463-1.894 2.046-2.664 3.433-3.632 0.063-1.423 0.814-3.827 0.2-4.641-0.293 0.646-1.153 0.65-1.613 0.807-0.516 0.176-0.901 0.674-1.615 0.202-0.18-2.467 1.591-2.984 1.412-5.448-0.595-0.346-1.546 0.388-2.623 0.201-1.104-2.113 1.621-3.826 0.606-6.053-1.125 0.474-2.268 0.425-3.027-0.404 0.584-1.77 1.368-3.339 1.615-5.448-1.434-0.125-2.151 2.131-4.037 2.219-0.766-0.397-0.275-2.525 0.404-2.018 0.226-2.041 2.781-2.669 2.018-5.045-3.07-0.31-3.85 3.124-6.46 3.863zm43.59 36.725c0.89-0.667 1.769-0.105 2.02-1.412-0.85-0.46-1.95 1.14-2.02 1.41zm-128.34 125.72c-0.273-0.491-0.403-0.126-0.606-0.403 0.098-1.377-0.716-1.841-1.21-2.625-1.724-0.289-2.865-0.601-4.642-0.604-0.823-0.004-1.158 0.357-1.614 0.402-2.178 0.217-4.299-0.396-6.457 0.403 0.695 1.122 1.83 1.802 3.43 2.019 0.034 0.976 1.969 0.896 2.421 0.808 0.858 0.891 1.838 1.659 3.633 1.613 1.213 1.68 3.405 2.381 5.448 3.229 0.675-1.67-0.253-3.36-0.403-4.85z" fill-rule="evenodd"/>
<path clip-rule="evenodd" d="m102.33 121.88c0.572-0.034 0.841-0.37 1.413-0.404-0.075 0.344 0.157 0.381 0.403 0.404 0.154 1.211-0.841 1.724-1.614 1.412 0.162 0.999 0.262 1.501-0.202 2.22-0.993-0.365-1.578-0.125-1.614-1.614 1.38-0.21 2.08-0.3 1.61-2.02z" fill-rule="evenodd"/>
<path clip-rule="evenodd" d="m121.5 130.36c0.34 0.285-0.407 1.195-0.402 1.815-0.962 0.071-1.8-0.603-1.412-1.815 0.759 0.154 0.962-0.247 1.612-0.202-0.05 0.36 0.19 0.41 0.2 0.2z" fill-rule="evenodd"/>
<path clip-rule="evenodd" d="m22.022 225.4c0.421 0.118-0.291 0.763-0.202 1.212-0.977 0.103-1.495-0.254-1.413-1.212 0.357-0.046 1.01 0.204 0.808-0.402 0.542-0.14 0.39 0.417 0.605 0.606 0.172 0.03 0.191-0.09 0.202-0.21z" fill-rule="evenodd"/>
<path clip-rule="evenodd" d="m32.313 242.15c0.406-0.264 0.694-0.312 1.816-0.204 0.216 0.755-0.501 0.576-0.403 1.212-1.002 0.328-0.644-0.703-1.413-0.605 0.125-0.19 0.244-0.37 0-0.41z" fill-rule="evenodd"/>
<metadata><rdf:RDF><cc:Work><dc:format>image/svg+xml</dc:format><dc:type rdf:resource="http://purl.org/dc/dcmitype/StillImage"/><cc:license rdf:resource="http://creativecommons.org/licenses/publicdomain/"/><dc:publisher><cc:Agent rdf:about="http://openclipart.org/"><dc:title>Openclipart</dc:title></cc:Agent></dc:publisher><dc:title>french loaf</dc:title><dc:date>2007-11-13T05:42:36</dc:date><dc:description>Ready-To-Use Food And Drink Spot Illustrations by Susan Gaber 1982&#xD;\n&#xD;\nBook as a whole is under copyright but contents are copyright-free&#xD;\n&#xD;\nFrom archive.org</dc:description><dc:source>http://openclipart.org/detail/8157/french-loaf-by-johnny_automatic-8157</dc:source><dc:creator><cc:Agent><dc:title>johnny_automatic</dc:title></cc:Agent></dc:creator><dc:subject><rdf:Bag><rdf:li>baked goods</rdf:li><rdf:li>bread</rdf:li><rdf:li>clip art</rdf:li><rdf:li>clipart</rdf:li><rdf:li>externalsource</rdf:li><rdf:li>food</rdf:li><rdf:li>image</rdf:li><rdf:li>loaf</rdf:li><rdf:li>media</rdf:li><rdf:li>png</rdf:li><rdf:li>public domain</rdf:li><rdf:li>svg</rdf:li></rdf:Bag></dc:subject></cc:Work><cc:License rdf:about="http://creativecommons.org/licenses/publicdomain/"><cc:permits rdf:resource="http://creativecommons.org/ns#Reproduction"/><cc:permits rdf:resource="http://creativecommons.org/ns#Distribution"/><cc:permits rdf:resource="http://creativecommons.org/ns#DerivativeWorks"/></cc:License></rdf:RDF></metadata></svg>
