<?xml version="1.0"?>
<svg xmlns:rdf="http://www.w3.org/1999/02/22-rdf-syntax-ns#" xmlns="http://www.w3.org/2000/svg" xmlns:cc="http://web.resource.org/cc/" xmlns:xlink="http://www.w3.org/1999/xlink" xmlns:dc="http://purl.org/dc/elements/1.1/" xmlns:svg="http://www.w3.org/2000/svg" id="Layer_1" style="enable-background:new 0 0 259.965 230.197" xml:space="preserve" viewBox="0 0 259.965 230.197" version="1.1" y="0px" x="0px">
<path fill="#fff" clip-rule="evenodd" d="m190.22 67.396c-0.609 1.027 0.082 1.351-0.323 2.583-6.83-1.947-12.771-2.415-18.4-3.552-5.57-1.127-12.54 1.51-17.758-0.323-2.619 1.555-6.066 0.205-7.425 1.936-2.398-0.404-5.602 0.975-7.748 2.583-0.473-1.553-1.295 0.754-1.29-0.644-0.958 1.477-4.027 1.453-5.167 3.549-7.346 1.374-12.041 6.889-18.401 10.01-1.989 2.312-4.729 3.878-6.132 6.778-2.475 1.505-4.186 3.227-5.812 5.812-0.901 1.429-0.88 3.037-1.939 3.873-1.437 1.14-5.168 1.482-7.102 1.616-4.356 0.297-9.059-0.938-13.559-0.646-10.254-2.217-21.882-2.808-31.314-6.778-0.329 0.208-0.333 0.741-0.97 0.644-1.852-1.534-4.306-1.088-6.455-1.937-2.771-1.09-5.409-3.452-8.394-5.165-2.464-1.416-5.289-2.044-7.104-3.552-0.381-0.318-0.315-1.288-0.644-1.613-2.049-2.028-4.794-3.292-7.104-4.842 0.158-1.017-0.99-0.73-0.646-1.938-5.399-2.133-6.983-8.079-11.62-10.974-4.746-28.568 18.187-42.059 36.801-49.397 2.527-0.045 5.701-1.687 7.748-3.229 3.594 0.788 7.538-2.722 11.3-3.552 11.999-2.645 25.182-4.994 38.741-5.808 2.517-1.298 6.269 0.623 9.038 0 1.038-0.284 0.444 1.062 1.292 0.967 3.549-0.205 8.05-1.222 11.3 0 2.708-0.933 6.883 0.368 11.943 0 0.704-0.058 1.027 0.265 0.97 0.969 3.881 0.063 7.997 0.92 11.62 0.97 0.657 0.008 2.696 0.812 4.198 1.29 2.019 0.644 4.506 2.566 6.778 3.229 0.805 0.234 2.399-0.184 2.906 1.29 3.659 0.525 8.157 4.025 12.269 5.812 1.264 0.549 2.891 0.405 3.873 0.97 4.309 2.469 6.904 6.536 12.27 6.778 2.52 2.861 4.815 5.946 6.132 10.01 2.375 3.143 6.441 8.336 6.78 14.203 0.405 6.999-1.878 14.324-7.424 16.788-0.342 0.152-0.46 0.651-0.646 0.969-1.73-0.417-1.4 0.989-2.59 0.322zm-94.263-60.695c-1.235-0.657-2.157-0.378-3.229-0.646-2.288 3.006 3.57 4.13 3.229 0.646zm-16.788 3.875c1.7 0.486 2.879 0.394 3.552-1.292-0.394-0.898-1.983-0.599-3.229-0.646 0.008 0.761-0.557 0.95-0.323 1.938zm-7.748-1.292c-0.615 3.894 5.517 2.43 2.906-0.323-0.513-0.2-2.456 0.572-2.906 0.323zm-6.778 2.259c0.103 0.749-0.053 1.24-0.323 1.616 1.353 1.424 2.488 0.479 3.873-0.323 0.049-3.011-1.54-1.169-3.55-1.293zm-6.781 2.262c-0.305 1.703 0.714 2.081 1.292 2.903 0.644-0.646 1.308-1.274 1.29-2.583-0.969-0.717-1.127-0.38-2.582-0.32zm3.875 8.391c-0.234 0.988 0.328 1.177 0.323 1.939h5.165c-0.242-0.996 0.885-0.62 0.644-1.616-2.506-1.294-4.135-0.299-6.132-0.323zm-8.717 0.97c-0.599 1.561 0.644 1.526 0.969 2.906 1.062-1.198 4.653 0.134 4.196-2.583-1.568-1.821-3.381 0.688-5.165-0.323zm114.28 2.583c0.384 0.373 1.144 0.365 1.939 0.323 0.37-0.904 0.37-1.679 0-2.583-0.883-0.029-0.651 0.539-1.293 0 0.03 1.001-1.01 0.922-0.65 2.26zm-35.19 9.684c-0.76-0.097-0.6-1.119-1.613-0.967-1.135 0.828-0.244 2.031 0 3.229 0.749-0.105 1.24 0.05 1.613 0.323 0.799-0.972 0.417-1.442 0.323-2.906 1.019 1.141 1.794-0.11 2.582 0.321-0.644 4.845-4.057 6.92-7.424 9.04-0.917-0.912-1.006-2.651-2.259-3.229-0.702 0.268-0.717 1.219-1.613 1.292-1.161 0.118-1.916-2.186-2.262-3.875h-1.936c-0.604 0.581-0.386 1.983-1.29 2.259-1.5-0.315-1.949 0.42-2.906 0.646 0.095-0.849-1.253-0.255-0.969-1.29 0.029-0.51 0.822-0.252 0.646-0.97-0.917 0.055-0.63-1.093-1.936-0.646v2.906c-1.666 0.273-3.455 0.423-5.488 0.323-0.707-0.909-1.146-2.086-2.583-2.259-0.641 0.436 0.1 2.254-0.969 2.259-0.005-0.533-0.896-0.181-0.969-0.646-0.192-0.667 0.399-2.12-0.323-2.26-0.423 0.814-1.059-0.846-1.937-0.646-0.163 1.582-0.137 3.255-1.29 4.521-1.137 0.268-3.793-0.095-4.521-0.323-0.016 1.355-0.662 0.799-1.936 1.29-0.917 1.237-0.583 3.72-1.936 4.521 0.094-0.849-1.253-0.255-0.97-1.292 0.286-0.791 0.967-1.185 0.646-2.583-1.327-0.578-1.374-0.518-2.906-0.646-0.032 1.001 0.394 1.542 0.646 2.262-4.844 0.594-5.727-4.821-8.071-8.071-2.404 2.93 0.851 6.019 1.937 8.392 3.171 1.33 7.109 5.312 11.623 4.521 1.167 1.794 3.042 1.203 4.842 2.259 0.071-0.252 0.008-0.638 0.323-0.646 4.908 3.181 11.47 0.302 16.142 0.646 1.949-1.361 5.013-1.358 6.778-2.906 2.906 0.092 5.486-2.501 7.748-3.875 3.775-2.289 8.675-5.486 7.104-12.913-4.159-5.659-11.011-3.915-17.435-4.519-0.331 1.944 1.687 1.542 1.616 3.229 2.493 0.444 2.743-0.2 4.842 0.323-0.914 1.584 0.034 3.741 2.259 3.227 0.2-1.49-0.725-1.857-0.646-3.227 2.56-0.762 5.36-0.323 4.52 2.906zm-21.3-4.519c-3.754 0.386-9.981-2.175-11.943-0.323-3.121-1.705-6.915 4.406-3.229 5.812v2.26c0.599 0.263 1.306 0.417 1.613 0.969 1.621-1.306-1.521-4.337 0-5.488 0.704 1.017 1.321 2.123 3.229 1.936 0.723-0.678 0.431-2.367 1.293-2.905 1.752 0.412 2.895 0.1 4.842 0.646-0.181 0.788-1.25 0.688-0.969 1.937 0.455 0.084 0.368 0.709 0.646 0.969h1.937c0.546-1.064 0.192-2.065 0-3.229 1.553-0.386 4.009 0.071 6.135 1.937 0.491-1.393 0.614-3.182 2.583-2.259-0.008-0.759 0.557-0.951 0.323-1.937-2.11-2.225-3.95-0.58-6.45-0.325zm69.41 3.875c0.785-0.951 0.449 0.131 1.937-0.646v-1.936c-1.217 0.247-1.542-0.395-2.583-0.323-0.4 1.457-0.36 1.912 0.64 2.905zm-61.34-1.939c-0.441 1.324 0.231 3.402 2.583 2.906 0.14-2.171-0.72-3.623-2.58-2.906zm-15.18 5.168c0.194-0.775 0.465-1.474 0.323-2.585-1.159-0.423-1.182 0.023-2.259-0.321-0.59 1.639 0.24 2.722 1.94 2.906zm19.7 0c0.791 0.284 1.185 0.967 2.583 0.644 0.231-2.06-0.518-3.14-2.259-3.229-0.5 0.47-0.28 1.655-0.32 2.585zm-34.545-0.323c-0.005-0.964-0.841-1.099-0.969-1.939-1.117-0.26-1.364 0.604-1.937 0-0.675 2.648 1.081 2.971 2.906 1.939zm2.904 0.967c0.073-0.252 0.271-0.376 0.646-0.323 0.05-1.471 0.268-1.267 0-2.583h-2.259c-0.773 1.447 0.551 2.356 1.613 2.906zm24.861-2.583c-0.728 0.242-0.126 1.811-0.323 2.583 0.793 0.462 2.735 0.446 2.583-1.613-0.26-0.823-1.66-1.475-2.26-0.97zm51.33 0.323c0.042 1.143 0.531 1.836 0.97 2.583 0.326-0.909 1.371 0.089 1.937 0 0.373-0.381 0.365-1.14 0.323-1.936-0.395-0.037-0.765-0.097-0.646-0.646-1.285 0.389-0.875-0.255-1.937-0.323 0.02 0.603-0.25 0.682-0.64 0.322zm-59.73 2.582c1.122 0.063 1.227 1.143 2.262 1.293 1.154-0.972 0.336-3.739-1.615-3.552-0.22 0.736-0.28 1.65-0.64 2.259zm20.99 1.616c0.867-1.447-0.084-3.47-1.939-3.229-1.28 1.645-0.05 3.143 1.94 3.229zm27.76-0.969c1.164-0.194 0.951 0.985 1.939 0.969-0.168-0.483 3.166-0.323 1.936-2.583-1.526 0.126-2.695-0.105-3.875-0.323-0.01 0.644-0.01 1.29-0.01 1.937zm-67.471 2.259c1.482-0.368 2.007 0.305 3.229-0.323v-1.613c-1.138-0.77-1.498-0.394-2.906-0.646-0.717 0.969-0.381 1.127-0.323 2.582zm3.876-1.613c0.489 0.909 0.72 2.078 2.259 1.936 0.499-0.47 0.284-1.652 0.323-2.583-1.13-0.052-2.068 0.085-2.582 0.647zm-7.748 2.26c1.206-0.029 0.919-0.363 1.936 0 0.142-1.111-0.129-1.81-0.323-2.583h-2.259c-0.158 1.232 0.091 2.06 0.646 2.583zm57.143 1.613c0.68 0.286 0.953 0.982 1.936 0.969 0.234-1.106 1.621-0.36 3.229-0.646 0.72-3.589-4.46-2.249-5.17-0.323zm9.04 3.552c0.021 1.865 1.613 2.186 2.906 1.937 0.567-1.088-0.219-1.655 0-3.229-1.55-0.14-1.65 1.155-2.91 1.292zm-9.04 3.229c1.437 1.878 4.29-0.943 1.936-2.583-0.61 0.896-2.01 1.009-1.94 2.583zm37.77-0.647c-0.491 2 1.298 1.716 1.939 2.583 0.283-0.791 0.967-1.185 0.646-2.583-1.44 0.153-1.61-0.444-2.59 0zm-12.92 3.229c1.025 0.969 1.537 0.21 2.906 0.646-0.048-1.293 1.303-2.336 0.323-3.552-1.71 0.326-3.09 0.996-3.23 2.906zm-11.62-0.969v1.616c1.02 0.139 1.267 0.798 2.906 0.32 0.086-1.062 0.809-2.428-0.646-2.583-0.2 0.768-1.98-0.049-2.26 0.647zm-117.51 7.424c-1.006 1.619-0.581 4.333 1.939 4.198-0.055-2.272 1.802-3.762 3.549-3.229 0.032-1.004 0.602-2.22-0.646-2.583-1.027 0.309-3.019 1.17-4.842 1.614zm14.206 3.553c-0.901-1.855-1.445-2.236-3.552-2.583-0.444 0.415-0.318 1.403-0.323 2.259h-1.937v1.616c1.041 0.465 2.709 0.305 4.199 0.32 0.53-0.543 0.699-1.45 1.29-1.936-0.014 0.345 0.152 0.82 0.323 0.324zm26.795 13.882c1.369 1.261 2.054-0.3 3.552 0.646-0.018-0.557 0.247-0.828 0.644-0.969 0.242-0.993-0.886-0.62-0.644-1.613h-3.229c0.234 0.985-0.557 0.948-0.323 1.936zm-25.503 0.646c0.599 0.26 1.303 0.418 1.613 0.967 1.09-0.814 0.2-1.689 0.323-3.229h-1.937c0.001 0.754 0.001 1.508 0.001 2.262zm34.866-1.293c0.318 4.469 6.25 0.757 10.007 1.937 0.714 1.224 0.798 3.076 2.583 3.229 0.333-0.849 0.386-1.981 0.323-3.229-3.688-2.659-7.999-2.26-12.905-1.937zm-46.165 0.647c-0.203 1.25-0.268 1.329 0.323 2.259 0.991-0.299 2.391-0.189 2.26-1.613-0.236-0.733-0.972-0.967-1.616-1.292 0.042 0.58-0.321 0.756-0.967 0.646zm29.701 10.33c2.065 0.244 1.629-1.884 1.29-3.229 1.298-1.5 2.457-3.139 2.583-5.811-0.778 0.134-0.702-0.589-1.613-0.321-1.359 2.328-3.513 5.491-2.26 9.361zm-20.017-4.519c0.87 1.566 2.788 1.724 3.229-0.323-0.428-1.277-1.826-1.085-2.583-1.293 0.468 1.222-0.888 0.62-0.646 1.616zm-5.812 0.967v2.262c1.219 0.3 1.516 0.016 2.259 0.321 0.8-1.834-0.096-3.5-2.259-2.583zm40.032 5.811c-0.024 0.562 0.073 1.004 0.323 1.293 3.938-1.196 5.48-3.061 10.01-3.875v-1.936c-4.012 0.938-8.358 1.545-10.333 4.518zm15.826-1.613c1.172 0.497 3.484 0.575 3.227-1.293-1.03-1.032-1.272-0.861-3.227-0.967-0.34 0.915-0.34 1.346 0 2.26zm-5.494 2.583c-0.234 0.985 0.329 1.177 0.321 1.936 2.346 0.302 2.971-1.119 3.229-2.906-1.552-1.145-2.032 1.067-3.554 0.97zm-2.905 0.967c-1.976-0.575-0.93 1.868-2.905 1.292-0.142 1.109 0.126 1.81 0.323 2.583 1.288-0.441 3.429-1.726 2.906-2.906-0.274 1.025-0.429-0.573-0.324-0.969z" fill-rule="evenodd"/>
<path clip-rule="evenodd" d="m92.728 6.055c1.072 0.268 1.994-0.01 3.229 0.646 0.341 3.484-5.517 2.36-3.229-0.646z" fill-rule="evenodd"/>
<path clip-rule="evenodd" d="m79.492 8.637c1.245 0.047 2.834-0.252 3.229 0.646-0.672 1.687-1.852 1.779-3.552 1.292-0.234-0.987 0.331-1.176 0.323-1.938z" fill-rule="evenodd"/>
<path clip-rule="evenodd" d="m74.327 8.96c2.611 2.753-3.521 4.217-2.906 0.323 0.45 0.25 2.393-0.522 2.906-0.323z" fill-rule="evenodd"/>
<path clip-rule="evenodd" d="m68.192 12.835c-1.385 0.802-2.52 1.748-3.873 0.323 0.271-0.375 0.426-0.867 0.323-1.616 2.011 0.125 3.6-1.717 3.55 1.293z" fill-rule="evenodd"/>
<path clip-rule="evenodd" d="m60.445 14.125c0.018 1.309-0.646 1.937-1.29 2.583-0.578-0.822-1.598-1.2-1.292-2.903 1.454-0.06 1.612-0.397 2.582 0.32z" fill-rule="evenodd"/>
<path clip-rule="evenodd" d="m67.869 22.52c0.242 0.996-0.885 0.62-0.644 1.616h-5.165c0.005-0.762-0.557-0.951-0.323-1.939 1.997 0.023 3.626-0.972 6.132 0.323z" fill-rule="evenodd"/>
<path clip-rule="evenodd" d="m58.185 23.489c0.458 2.716-3.134 1.384-4.196 2.583-0.326-1.379-1.568-1.345-0.969-2.906 1.784 1.011 3.597-1.498 5.165 0.323z" fill-rule="evenodd"/>
<path clip-rule="evenodd" d="m167.95 23.489c0.642 0.539 0.41-0.029 1.293 0 0.37 0.904 0.37 1.679 0 2.583-0.796 0.042-1.556 0.05-1.939-0.323-0.36-1.338 0.68-1.259 0.65-2.26z" fill-rule="evenodd"/>
<path clip-rule="evenodd" d="m179.57 31.883c1.041-0.071 1.366 0.57 2.583 0.323v1.936c-1.487 0.778-1.151-0.305-1.937 0.646-0.99-0.992-1.03-1.447-0.64-2.905z" fill-rule="evenodd"/>
<path clip-rule="evenodd" d="m121.46 35.756c-2.351 0.497-3.024-1.582-2.583-2.906 1.86-0.717 2.72 0.735 2.58 2.906z" fill-rule="evenodd"/>
<path clip-rule="evenodd" d="m101.77 35.112c1.077 0.344 1.101-0.102 2.259 0.321 0.142 1.111-0.129 1.81-0.323 2.585-1.71-0.184-2.54-1.267-1.94-2.906z" fill-rule="evenodd"/>
<path clip-rule="evenodd" d="m123.72 35.433c1.742 0.089 2.491 1.169 2.259 3.229-1.397 0.323-1.792-0.36-2.583-0.644 0.04-0.93-0.18-2.115 0.32-2.585z" fill-rule="evenodd"/>
<path clip-rule="evenodd" d="m85.95 35.756c0.573 0.604 0.82-0.26 1.937 0 0.128 0.84 0.964 0.975 0.969 1.939-1.826 1.032-3.582 0.709-2.906-1.939z" fill-rule="evenodd"/>
<path clip-rule="evenodd" d="m90.146 35.756h2.259c0.268 1.316 0.05 1.111 0 2.583-0.375-0.053-0.573 0.071-0.646 0.323-1.062-0.55-2.386-1.459-1.613-2.906z" fill-rule="evenodd"/>
<path clip-rule="evenodd" d="m118.88 37.048c0.152 2.06-1.789 2.076-2.583 1.613 0.197-0.772-0.405-2.341 0.323-2.583 0.6-0.504 2 0.148 2.26 0.97z" fill-rule="evenodd"/>
<path clip-rule="evenodd" d="m168.6 36.079c1.062 0.068 0.651 0.712 1.937 0.323-0.118 0.549 0.252 0.61 0.646 0.646 0.042 0.796 0.05 1.555-0.323 1.936-0.565 0.089-1.61-0.909-1.937 0-0.438-0.746-0.928-1.439-0.97-2.583 0.38 0.361 0.65 0.282 0.64-0.322z" fill-rule="evenodd"/>
<path clip-rule="evenodd" d="m108.87 36.725c1.952-0.187 2.769 2.58 1.615 3.552-1.035-0.15-1.14-1.229-2.262-1.293 0.36-0.609 0.42-1.523 0.65-2.259z" fill-rule="evenodd"/>
<path clip-rule="evenodd" d="m127.27 37.372c1.855-0.242 2.806 1.781 1.939 3.229-1.99-0.087-3.22-1.585-1.94-3.229z" fill-rule="evenodd"/>
<path clip-rule="evenodd" d="m156.97 37.695c1.18 0.218 2.349 0.449 3.875 0.323 1.23 2.26-2.104 2.099-1.936 2.583-0.988 0.016-0.775-1.164-1.939-0.969 0.01-0.648 0.01-1.294 0.01-1.937z" fill-rule="evenodd"/>
<path clip-rule="evenodd" d="m89.822 39.308c1.408 0.252 1.768-0.124 2.906 0.646v1.613c-1.222 0.627-1.747-0.045-3.229 0.323-0.058-1.455-0.394-1.613 0.323-2.582z" fill-rule="evenodd"/>
<path clip-rule="evenodd" d="m95.957 39.631c-0.04 0.93 0.176 2.112-0.323 2.583-1.54 0.142-1.771-1.027-2.259-1.936 0.514-0.563 1.452-0.7 2.582-0.647z" fill-rule="evenodd"/>
<path clip-rule="evenodd" d="m84.98 39.954h2.259c0.194 0.772 0.465 1.471 0.323 2.583-1.017-0.363-0.73-0.029-1.936 0-0.554-0.523-0.803-1.351-0.646-2.583z" fill-rule="evenodd"/>
<path clip-rule="evenodd" d="m147.94 44.473c-1.608 0.287-2.995-0.459-3.229 0.646-0.982 0.013-1.256-0.683-1.936-0.969 0.71-1.926 5.89-3.266 5.17 0.323z" fill-rule="evenodd"/>
<path fill="#fff" clip-rule="evenodd" d="m119.2 48.348c-5.286 1.292-10.911 3.873-18.401 2.259-0.124-2.814 0.988-4.393 2.26-5.812 7.469-0.294 9.038 0.657 14.852-0.969 1.64 0.305 1.9 2.954 1.29 4.522z" fill-rule="evenodd"/>
<path clip-rule="evenodd" d="m154.71 46.409c-0.219 1.574 0.567 2.141 0 3.229-1.293 0.25-2.885-0.071-2.906-1.937 1.27-0.136 1.37-1.431 2.91-1.292z" fill-rule="evenodd"/>
<path clip-rule="evenodd" d="m144.7 48.348c2.354 1.639-0.499 4.461-1.936 2.583-0.06-1.574 1.34-1.687 1.94-2.583z" fill-rule="evenodd"/>
<path clip-rule="evenodd" d="m183.12 50.284c0.321 1.398-0.362 1.792-0.646 2.583-0.642-0.867-2.431-0.583-1.939-2.583 0.99-0.444 1.16 0.153 2.59 0z" fill-rule="evenodd"/>
<path clip-rule="evenodd" d="m170.85 50.607c0.979 1.216-0.371 2.259-0.323 3.552-1.369-0.437-1.881 0.323-2.906-0.646 0.14-1.91 1.52-2.58 3.23-2.906z" fill-rule="evenodd"/>
<path clip-rule="evenodd" d="m158.26 51.897c1.455 0.155 0.732 1.521 0.646 2.583-1.64 0.478-1.887-0.181-2.906-0.32v-1.616c0.28-0.696 2.06 0.121 2.26-0.647z" fill-rule="evenodd"/>
<path clip-rule="evenodd" d="m43.333 58.355c1.248 0.363 0.678 1.579 0.646 2.583-1.747-0.534-3.604 0.956-3.549 3.229-2.52 0.134-2.945-2.58-1.939-4.198 1.823-0.445 3.815-1.306 4.842-1.614z" fill-rule="evenodd"/>
<path clip-rule="evenodd" d="m79.815 75.466h3.229c-0.242 0.993 0.886 0.62 0.644 1.613-0.397 0.142-0.662 0.413-0.644 0.969-1.498-0.946-2.183 0.615-3.552-0.646-0.234-0.987 0.557-0.95 0.323-1.936z" fill-rule="evenodd"/>
<path clip-rule="evenodd" d="m53.989 75.787h1.937c-0.124 1.54 0.767 2.414-0.323 3.229-0.31-0.549-1.014-0.707-1.613-0.967-0.001-0.754-0.001-1.508-0.001-2.262z" fill-rule="evenodd"/>
<path clip-rule="evenodd" d="m101.77 78.693c0.063 1.248 0.01 2.38-0.323 3.229-1.784-0.152-1.868-2.004-2.583-3.229-3.757-1.18-9.689 2.532-10.007-1.937 4.901-0.323 9.212-0.722 12.91 1.937z" fill-rule="evenodd"/>
<path clip-rule="evenodd" d="m43.657 76.756c0.644 0.326 1.379 0.56 1.616 1.292 0.131 1.424-1.269 1.314-2.26 1.613-0.591-0.93-0.525-1.009-0.323-2.259 0.646 0.111 1.009-0.065 0.967-0.646z" fill-rule="evenodd"/>
<path clip-rule="evenodd" d="m74.65 78.372c0.912-0.268 0.835 0.455 1.613 0.321-0.126 2.672-1.285 4.311-2.583 5.811 0.339 1.345 0.775 3.473-1.29 3.229-1.252-3.87 0.902-7.033 2.26-9.361z" fill-rule="evenodd"/>
<path clip-rule="evenodd" d="m53.02 81.598c0.757 0.208 2.154 0.016 2.583 1.293-0.441 2.046-2.359 1.889-3.229 0.323-0.242-0.996 1.114-0.394 0.646-1.616z" fill-rule="evenodd"/>
<path clip-rule="evenodd" d="m48.822 86.764c-0.744-0.305-1.041-0.021-2.259-0.321v-2.262c2.162-0.917 3.058 0.749 2.259 2.583z" fill-rule="evenodd"/>
<path clip-rule="evenodd" d="m96.926 85.474v1.936c-4.529 0.814-6.071 2.68-10.01 3.875-0.25-0.289-0.347-0.73-0.323-1.293 1.976-2.973 6.322-3.58 10.333-4.518z" fill-rule="evenodd"/>
<path clip-rule="evenodd" d="m102.42 86.12c1.955 0.105 2.197-0.065 3.227 0.967 0.257 1.868-2.055 1.79-3.227 1.293-0.34-0.915-0.34-1.346 0-2.26z" fill-rule="evenodd"/>
<path clip-rule="evenodd" d="m26.225 89.346c0.247 0.762 0.636 2.233 0 2.906h-1.615c-0.258-0.602-0.539-1.183-0.644-1.937 0.93-0.147 1.008-1.142 2.259-0.969z" fill-rule="evenodd"/>
<path clip-rule="evenodd" d="m100.48 89.992c-0.257 1.787-0.882 3.208-3.229 2.906 0.008-0.759-0.555-0.951-0.321-1.936 1.518 0.097 1.998-2.115 3.55-0.97z" fill-rule="evenodd"/>
<path clip-rule="evenodd" d="m30.744 95.158v1.616c-0.943 0.875-2.06 0.462-2.583-0.646 0.242-1.559 1.416-1.777 2.583-0.97z" fill-rule="evenodd"/>
<path clip-rule="evenodd" d="m204.75 97.096c0.233 0.985-0.328 1.175-0.32 1.937h-2.263c0.236-0.988-0.557-0.951-0.32-1.937 0.52-0.486 2.38-0.486 2.9 0z" fill-rule="evenodd"/>
<path clip-rule="evenodd" d="m29.454 98.063c1.248 0.123 1.271 0.187 2.259 0.969 0.271 1.348-0.627 1.524-0.646 2.583-1.206 0.344-0.919-0.801-1.937-0.646 0.066-1.01-0.217-2.371 0.324-2.907z" fill-rule="evenodd"/>
<path clip-rule="evenodd" d="m42.69 98.063c0.226 1.188 0.641 2.541-0.323 3.229-1.051-0.131-1.695-0.675-2.259-1.292 0.012-1.491 0.916-2.092 2.582-1.935z" fill-rule="evenodd"/>
<path clip-rule="evenodd" d="m212.82 98.709c1.251-0.173 1.577 0.576 2.906 0.323 0.381 1.382-0.023 1.316-0.32 2.583-2.12 0.28-2.69-0.98-2.59-2.911z" fill-rule="evenodd"/>
<path clip-rule="evenodd" d="m33.326 99.033h2.906c-0.042 0.578 0.397 0.681 0.323 1.29-0.229 0.849-0.702 1.453-1.936 1.292-1.048-0.24-1.403-1.17-1.293-2.577z" fill-rule="evenodd"/>
<path clip-rule="evenodd" d="m195.71 100.65c0.723 1.847-0.638 1.789-0.969 2.583-0.479-0.168-0.812-0.479-1.29-0.644-0.25-1.66 0.58-2.23 2.26-1.94z" fill-rule="evenodd"/>
<path clip-rule="evenodd" d="m233.16 100.97c1.182-0.107 1.794 0.36 2.582 0.646 0.187 1.048-0.221 1.503-0.323 2.259-1.116-0.284-2.12-0.678-2.582-1.613-0.04-0.59 0.39-0.69 0.32-1.3z" fill-rule="evenodd"/>
<path clip-rule="evenodd" d="m42.043 106.46c-1.621 0.055-1.261-0.641-2.259-0.646-0.654-4.02 4.201-2.41 2.259 0.65z" fill-rule="evenodd"/>
<path clip-rule="evenodd" d="m49.145 106.46c-0.896 0.074-0.912 1.025-1.613 1.293-1.085-0.315-1.61-1.19-2.259-1.939 1.134-0.95 3.835-1.4 3.872 0.65z" fill-rule="evenodd"/>
<path clip-rule="evenodd" d="m209.6 105.49c0.21 2.415-2.062 2-2.583 2.906-1.85-1.62 0.91-3.91 2.58-2.91z" fill-rule="evenodd"/>
<path clip-rule="evenodd" d="m53.989 105.49c0.793-0.042 1.556-0.047 1.937 0.323-0.215 1.185-0.344 2.454-0.646 3.552-1.924-0.25-2.659-1.16-1.291-3.87z" fill-rule="evenodd"/>
<path clip-rule="evenodd" d="m63.351 107.43c-0.646 0.32-1.306 0.628-1.937 0.967-0.431-0.32-0.636-0.872-1.292-0.967-0.05-0.804 0.507-1.001 0.646-1.616 1.636-0.3 2.553-0.31 2.583 1.62z" fill-rule="evenodd"/>
<path clip-rule="evenodd" d="m69.808 108.07c-0.82 0.494-1.831 0.562-2.262 0.646-0.462-0.397-0.609-1.109-0.644-1.937 1.07-1.08 3.15-1.25 2.906 1.29z" fill-rule="evenodd"/>
<path clip-rule="evenodd" d="m224.12 105.81c2.126 0.964-0.028 2.301-0.323 3.552-0.798 0.418-1.565-0.72-1.612 0-0.466-0.073-0.113-0.964-0.646-0.969 0.01-1.7 2.02-1.42 2.58-2.58z" fill-rule="evenodd"/>
<path clip-rule="evenodd" d="m73.681 106.13c0.98 0 1.936 0.501 1.616 2.583-1.211 0.189-1.185 0.031-2.262 0.646-0.284-0.791-0.967-1.185-0.644-2.583 0.57-0.07 1.615 0.33 1.29-0.65z" fill-rule="evenodd"/>
<path clip-rule="evenodd" d="m78.846 108.72c0.639 0.762 1.983 0.817 1.616 2.583-0.602 0.044-1.08 0.213-1.292 0.646-1.312-0.17-1.212-2.66-0.324-3.23z" fill-rule="evenodd"/>
<path clip-rule="evenodd" d="m42.367 109.36h1.936c0.646 1.114 1.211 2.005 2.26 1.937-0.258 0.604-0.539 1.182-0.644 1.939-1.217-0.41-5.037-1.3-3.552-3.88z" fill-rule="evenodd"/>
<path clip-rule="evenodd" d="m83.688 109.36c1.158 0.686 1.833-0.522 2.906 0.646 0.016 0.982-0.681 1.256-0.967 1.937-1.369-0.287-1.642 0.202-2.583-0.646-0.155-1.02 0.46-1.26 0.644-1.94z" fill-rule="evenodd"/>
<path clip-rule="evenodd" d="m57.862 109.69c0.609 1.24 0.623-0.504 2.259 0 0.373 0.904 0.373 1.679 0 2.583-0.877-0.145-1.511-0.307-1.937 0-0.692-0.62-0.705-1.69-0.322-2.58z" fill-rule="evenodd"/>
<path clip-rule="evenodd" d="m50.438 110.33h1.936v3.549c-1.679 0.851-3.087 0.449-3.552-1.29 0.018-0.95 1.842-0.33 1.616-2.26z" fill-rule="evenodd"/>
<path clip-rule="evenodd" d="m69.808 110.33h2.906c0.32 1.397-0.363 1.792-0.646 2.583-1.359 0-2.294-0.47-2.26-2.58z" fill-rule="evenodd"/>
<path clip-rule="evenodd" d="m65.933 112.27c0.158 1.02-0.581 1.141-0.323 2.26-1.216 0.221-1.366 0.221-2.583 0-0.142-2.04 1.419-3.74 2.906-2.26z" fill-rule="evenodd"/>
<path clip-rule="evenodd" d="m238.33 111.62c1.066 0.223 1.815 0.767 2.905 0.969-0.129 1.881-1.127 2.044-2.905 1.613-0.01-0.85-0.01-1.72-0.01-2.58z" fill-rule="evenodd"/>
<path clip-rule="evenodd" d="m75.94 112.92c0.581 0.925 1.619 1.395 1.292 3.226-1.492 1.093-1.334 0.269-2.583 0.97 0.055-0.917-1.093-0.631-0.646-1.937 0.276-0.06 0.305 0.126 0.323 0.323 0.405-1 1.674-1.13 1.614-2.58z" fill-rule="evenodd"/>
<path clip-rule="evenodd" d="m83.688 114.2c0.086 0.946-0.728 0.993-0.644 1.936-0.988-0.231-1.177 0.331-1.938 0.323-0.25-0.717-0.678-1.258-0.644-2.259 1.466 0.03 2.188-1.34 3.226 0z" fill-rule="evenodd"/>
<path clip-rule="evenodd" d="m67.546 114.53c1.127 0.166 0.476 2.11 0.646 3.229-0.552-0.014-0.835 0.239-0.967 0.646-1.469-0.308-2.906-1.456-1.939-3.229 0.915-0.06 2.215 0.27 2.26-0.65z" fill-rule="evenodd"/>
<path clip-rule="evenodd" d="m85.95 117.76c0.507 0.139 0.276 1.014 1.29 0.646 0.234 2.17-1.019 2.853-1.936 3.872-2.255-0.97-0.904-3.79 0.646-4.52z" fill-rule="evenodd"/>
<path clip-rule="evenodd" d="m80.461 118.4c0.741 2.553-1.915 3.126-3.552 2.259v-1.615c1.795 0.15 1.264-0.85 3.552-0.64z" fill-rule="evenodd"/>
<path clip-rule="evenodd" d="m246.72 121.31c0.312 2.317-1.755 1.198-2.582 1.613-0.565-0.297-0.712-1.009-0.646-1.937 1.51-0.15 2.1-0.38 3.23 0.33z" fill-rule="evenodd"/>
<path fill="#fff" clip-rule="evenodd" d="m167.62 127.76c-0.94 0.081-1.113-0.606-1.612-0.967-1.947 0.268-0.718 3.894-0.323 4.842 4.994-2.585 10.443 4.7 15.172 5.165-0.42 1.926 1.02 1.994 0.97 3.55 5.711 1.479 12.842 6.547 13.236 16.142-1.548 0.956-3.369 3.489-5.166 5.168-0.394-1.041-2.517 0.042-2.905 0.967-2.296-1.253-5.384 1.634-7.748-0.646-7.001 3.55-13.977-5.062-21.63-6.778-3.208-4.035-5.964-10.075-3.229-15.818-0.129-0.948-1.059-1.093-1.29-1.937-1.534 1.479-1.366 4.658-1.939 7.102-1.374-0.454-1.271-2.386-2.905-2.583-0.142 1.866 0.145 3.3 0.97 4.196h1.936c0.076 1.539 1.027 2.816 0.646 3.875-4.271-0.57-3.791-5.893-6.778-7.748-0.612-3.521-0.428-6.042 0-9.687 5.454-7.727 16.77-14.752 25.826-9.684-0.57 2.1-1.66 2.63-3.25 4.84zm-10.65-0.96c1.492-0.016 2.097-0.92 1.939-2.585-0.76-0.103-1.214-0.51-2.263-0.32-0.1 1.17 0.05 2.09 0.32 2.9zm5.17 0.64c0.363-0.312 2.782-0.126 2.26-2.26-0.599-0.26-1.303-0.417-1.613-0.969 0.152 1.321-0.812-0.008-1.29 0 0.04 1.25-0.26 2.84 0.64 3.23zm-12.27 2.91c1.018-0.155 0.73 0.99 1.937 0.646 0.421-1.04 0.696-3.352-0.646-3.552-0.48 0.91-1.78 1.01-1.29 2.9zm8.39 1.61c-1.529 0.415-2.672 2.178-1.939 3.873h1.939c0.441-1.926 2.496-2.239 2.26-4.843-0.802 0.048-1.566 0.061-1.613-0.646 0.333-0.825 0.964-1.764 0-2.26-0.084 0.757-1.419 0.187-1.616 0-1.18 1.93 1.33 1.84 0.97 3.88zm-8.71 3.23c0.386-0.889 0.701-1.348 0.322-2.26-0.967-0.215-1.721-0.646-2.259-1.29-1.1 2.06 0.73 3.72 1.94 3.55zm2.9-0.65c1.784-0.019 1.15 0.706 2.583 0.644 0.102-0.757 0.509-1.211 0.322-2.26-0.417-0.444-1.402-0.317-2.259-0.323-0.44 0.42-0.19 1.53-0.64 1.94zm-3.55 6.78c0.473-1.433-0.003-1.895 0-3.553-0.76 0.008-0.951-0.554-1.937-0.32-0.84 1.8 0.4 3.47 1.94 3.87z" fill-rule="evenodd"/>
<path clip-rule="evenodd" d="m156.65 123.89c1.049-0.189 1.503 0.218 2.263 0.32 0.157 1.665-0.447 2.569-1.939 2.585-0.27-0.81-0.42-1.73-0.32-2.91z" fill-rule="evenodd"/>
<path clip-rule="evenodd" d="m161.49 124.21c0.479-0.008 1.442 1.321 1.29 0 0.311 0.552 1.015 0.709 1.613 0.969 0.522 2.134-1.896 1.947-2.26 2.26-0.89-0.39-0.59-1.98-0.64-3.23z" fill-rule="evenodd"/>
<path clip-rule="evenodd" d="m151.16 127.44c1.343 0.2 1.067 2.512 0.646 3.552-1.206 0.345-0.919-0.801-1.937-0.646-0.49-1.88 0.81-1.98 1.29-2.9z" fill-rule="evenodd"/>
<path clip-rule="evenodd" d="m157.3 128.09c0.197 0.187 1.532 0.757 1.616 0 0.964 0.496 0.333 1.435 0 2.26 0.047 0.706 0.812 0.693 1.613 0.646 0.236 2.604-1.818 2.917-2.26 4.843h-1.939c-0.732-1.695 0.41-3.458 1.939-3.873 0.35-2.05-2.16-1.96-0.97-3.88z" fill-rule="evenodd"/>
<path clip-rule="evenodd" d="m246.72 130.99h1.937c0.113 1.161 0.494 1.556 0 2.583-0.376-0.053-0.575 0.071-0.646 0.323-0.861 0-0.701-1.02-1.613-0.97-0.24-0.98 0.56-0.94 0.32-1.93z" fill-rule="evenodd"/>
<path clip-rule="evenodd" d="m147.61 131.64c0.538 0.644 1.292 1.075 2.259 1.29 0.379 0.912 0.063 1.371-0.322 2.26-1.21 0.17-3.04-1.49-1.94-3.55z" fill-rule="evenodd"/>
<path clip-rule="evenodd" d="m153.1 132.61c0.856 0.006 1.842-0.121 2.259 0.323 0.187 1.049-0.221 1.503-0.322 2.26-1.433 0.062-0.799-0.662-2.583-0.644 0.44-0.42 0.19-1.53 0.64-1.94z" fill-rule="evenodd"/>
<path clip-rule="evenodd" d="m146.96 137.45c0.985-0.233 1.177 0.328 1.937 0.32-0.003 1.658 0.473 2.12 0 3.553-1.54-0.4-2.78-2.07-1.94-3.87z" fill-rule="evenodd"/>
<path clip-rule="evenodd" d="m246.07 142.62c1.524 0.108 0.896 2.263 0.323 2.906h-1.612c-0.447-0.418-0.321-1.403-0.323-2.263 0.61-0.15 1.94 0.43 1.61-0.65z" fill-rule="evenodd"/>
<path clip-rule="evenodd" d="m219.28 150.69c0.933 2.072 0.867 6.521 1.613 7.747-3.69 1.42-4.28-6.39-1.61-7.75z" fill-rule="evenodd"/>
<path clip-rule="evenodd" d="m103.7 152.95c1.009-0.146 1.033 0.688 0.97 1.613-0.66-0.2-1.22-0.5-0.97-1.61z" fill-rule="evenodd"/>
<path clip-rule="evenodd" d="m223.8 153.91c2.53 0.056 3.718 1.451 3.553 4.199-1.22-0.468-0.62 0.885-1.613 0.646-1.82-0.45-1.49-3.04-1.94-4.85z" fill-rule="evenodd"/>
<path clip-rule="evenodd" d="m112.74 156.18c-0.276 0.693-1.19 0.746-2.26 0.644 0.005-0.76-0.557-0.948-0.323-1.937 1.51-0.17 2.62-0.64 2.58 1.3z" fill-rule="evenodd"/>
<path clip-rule="evenodd" d="m105.64 161.02c5.29-1.37 0.52 4.84 0 0z" fill-rule="evenodd"/>
<path clip-rule="evenodd" d="m107.26 166.83c-0.008 0.759 0.554 0.948 0.323 1.937-1.503-0.426-1.083 1.071-2.583 0.646-0.87-1.61 0.07-3.09 2.26-2.59z" fill-rule="evenodd"/>
<path clip-rule="evenodd" d="m130.5 182.32c-0.276 4.136-3.037 5.788-7.748 5.488-0.194-0.772-0.465-1.474-0.323-2.582 1.24 0.37 3.063 0.78 3.875 0.646 1.37-1.22 1.03-4.14 4.2-3.56z" fill-rule="evenodd"/>
<path clip-rule="evenodd" d="m171.82 194.59c1.926-4.742-1.479-11.376-6.78-9.684-0.625-0.951 0.431-2.462 0.97-2.583 0.359-0.081 3.229 0.147 2.582 0 2.812 0.639 4.661 3.904 6.135 5.812-0.67 1.55 0.6 6.76-2.9 6.45z" fill-rule="evenodd"/>
<path clip-rule="evenodd" d="m161.81 182.97c-0.367 1.015 0.508 0.783 0.646 1.29-1.227 1.217-3.928 1.938-7.102 1.616-0.257 1.763 0.494 2.517 2.26 2.259 0.528 0.78 0.822 1.568 0.323 2.583-0.791-0.287-1.185-0.97-2.583-0.646-0.919-1.999-3.218-3.185-2.259-6.135 2.072-0.449 3.956-1.19 4.842 0.323 0.76-1.46 1.75-0.91 3.87-1.29z" fill-rule="evenodd"/>
<path clip-rule="evenodd" d="m162.78 189.1v1.616c-1.2 0.023-2.546 1.435-2.582-1.616 1.03-0.49 1.42-0.11 2.58 0z" fill-rule="evenodd"/>
<path clip-rule="evenodd" d="m166.34 192.65c0.691 0.618 0.707 1.685 0.323 2.583-0.948-0.087-1.2-0.444-1.615 0-1.53-1.04 0.07-2.4 1.3-2.58z" fill-rule="evenodd"/>
<path clip-rule="evenodd" d="m136.31 195.24c1.25-0.173 1.329 0.822 2.259 0.97 0.009 0.759-0.557 0.948-0.322 1.936-1.524-0.212-0.568 0.253-2.26-0.322-0.14-1.12 0.13-1.82 0.32-2.59z" fill-rule="evenodd"/>
<path clip-rule="evenodd" d="m153.42 198.79c0.443 0.415 0.317 1.403 0.32 2.26-0.57 0.073-1.616-0.326-1.29 0.646-1.75-0.39-1.39-3.24 0.97-2.91z" fill-rule="evenodd"/>
<path clip-rule="evenodd" d="m158.59 198.79c2.201 0.644 2.151 1.671 5.809 1.29v1.939c-3.38 0.05-6.79 0.65-5.81-3.23z" fill-rule="evenodd"/>
<path clip-rule="evenodd" d="m211.21 200.4c1.18 0.221 1.783 1.015 2.582 1.616-0.045 1.245-1.261 1.321-2.582 1.29-0.59-1.1 0.04-1.55 0-2.91z" fill-rule="evenodd"/>
<path clip-rule="evenodd" d="m146.32 202.02v1.613c-0.903 0.199-1.245-0.778-1.613 0.969-0.552 0.065-0.835-0.552-0.969 0-0.747-0.331-0.668-1.484-0.646-2.582 1.85 0.18 1.97-1.23 3.23 0z" fill-rule="evenodd"/>
<path clip-rule="evenodd" d="m203.14 206.86c-0.312 0.008-0.25 0.394-0.323 0.646-1.116 0.058-1.8 0.26-2.582 1.29-0.965-0.221-1.083-1.285-0.967-2.583 0.546 0.118 0.606-0.252 0.644-0.646 0.94 1.15 2.8-1.68 3.23 1.29z" fill-rule="evenodd"/>
<path clip-rule="evenodd" d="m187 208.15v1.615c-0.904 0.387-2.228 0.355-3.552 0.323-0.85-2.56 2.13-2.67 3.55-1.93z" fill-rule="evenodd"/>
<path fill="#fff" clip-rule="evenodd" d="m220.89 219.13c-2.977-2.352 0.856-4.779 2.585-5.488 1.79 1.97-0.93 4.84-2.59 5.49z" fill-rule="evenodd"/>
<path fill="#fff" clip-rule="evenodd" d="m133.73 214.61c11.203 5.398 22.511 5.888 34.22 7.747-0.78 1.43-0.055 2.356-0.646 3.875-1.297-0.638-3.218-0.654-4.195-1.615-1.479 0.436-2.701-0.258-4.519-0.323-4.425-3.09-10.039-2.939-14.852-4.195-1.671-0.437-2.728-1.64-4.196-2.26-1.93-0.82-4.89-0.72-5.8-3.23z" fill-rule="evenodd"/>
<path fill="#fff" clip-rule="evenodd" d="m217.34 216.87c0.718 0.634-0.423 2.142 0 3.553-1.014 0.709-2.002 1.441-3.229 1.936-0.499-0.47-0.283-1.652-0.323-2.582-2.478-0.059-1.687 2.38-1.937 3.875-1.568 0.037-2.17 0.418-3.552 0.644-0.104-1.259-0.252-2.52-0.967-3.872 2.9-0.71 7.15-2.43 10.01-3.56z" fill-rule="evenodd"/>
<path fill="#fff" clip-rule="evenodd" d="m206.69 220.74c-0.72 1.217-1.679 2.194-1.292 4.52-1.963 1.051-2.969 0.473-5.488 0.969 0.31-1.702 0.804-2.369 0.323-4.198 2.37-0.41 5.17-1.65 6.46-1.29z" fill-rule="evenodd"/>
<path fill="#fff" clip-rule="evenodd" d="m198.3 222.03c-0.297 1.913 0.552 2.678 0.646 4.198-0.896 0.09-2.893 0.741-2.906 0.645-0.683-1.472-1.495-2.809-2.259-4.196 1.88 0.28 2.51-0.57 4.52-0.65z" fill-rule="evenodd"/>
<path fill="#fff" clip-rule="evenodd" d="m192.48 223c1.237 0.423-0.155 2.524 0.323 4.195-3.516-0.016-8.56 1.248-10.977 0 0.357-1.363 1.027-2.414 1.292-3.872 2.933-0.46 4.141 0.807 5.165 2.26 1.228 0.044 1.433-0.936 1.613-1.937 1.42-0.39 2.01 0.42 2.59-0.65z" fill-rule="evenodd"/>
<path clip-rule="evenodd" d="m127.59 32.529c-0.079 1.369 0.846 1.737 0.646 3.227-2.225 0.515-3.173-1.642-2.259-3.227-2.099-0.522-2.349 0.121-4.842-0.323 0.071-1.687-1.947-1.285-1.616-3.229 6.423 0.604 13.275-1.14 17.435 4.519 1.57 7.427-3.329 10.625-7.104 12.913-2.262 1.374-4.842 3.967-7.748 3.875-1.766 1.547-4.829 1.545-6.778 2.906-4.671-0.344-11.234 2.535-16.142-0.646-0.315 0.008-0.252 0.394-0.323 0.646-1.8-1.056-3.676-0.465-4.842-2.259-4.513 0.791-8.452-3.192-11.623-4.521-1.085-2.373-4.34-5.462-1.937-8.392 2.344 3.25 3.227 8.665 8.071 8.071-0.252-0.72-0.678-1.261-0.646-2.262 1.532 0.128 1.579 0.068 2.906 0.646 0.32 1.398-0.36 1.792-0.646 2.583-0.284 1.038 1.064 0.444 0.97 1.292 1.353-0.801 1.019-3.284 1.936-4.521 1.274-0.491 1.92 0.065 1.936-1.29 0.728 0.229 3.384 0.591 4.521 0.323 1.153-1.267 1.127-2.94 1.29-4.521 0.877-0.2 1.514 1.46 1.937 0.646 0.723 0.14 0.131 1.592 0.323 2.26 0.073 0.465 0.964 0.113 0.969 0.646 1.069-0.005 0.329-1.823 0.969-2.259 1.438 0.173 1.876 1.351 2.583 2.259 2.033 0.1 3.822-0.05 5.488-0.323v-2.906c1.306-0.447 1.019 0.701 1.936 0.646 0.176 0.717-0.617 0.46-0.646 0.97-0.284 1.035 1.064 0.441 0.969 1.29 0.957-0.226 1.406-0.962 2.906-0.646 0.904-0.276 0.686-1.679 1.29-2.259h1.936c0.347 1.689 1.101 3.993 2.262 3.875 0.896-0.074 0.912-1.024 1.613-1.292 1.253 0.578 1.342 2.317 2.259 3.229 3.368-2.12 6.781-4.195 7.424-9.04-0.788-0.431-1.563 0.82-2.582-0.321 0.094 1.463 0.476 1.934-0.323 2.906-0.373-0.273-0.864-0.428-1.613-0.323-0.244-1.198-1.135-2.401 0-3.229 1.014-0.152 0.854 0.87 1.613 0.967 0.83-3.231-1.97-3.67-4.53-2.906zm-9.68 11.298c-5.814 1.626-7.382 0.675-14.852 0.969-1.272 1.419-2.383 2.998-2.26 5.812 7.49 1.613 13.115-0.967 18.401-2.259 0.61-1.569 0.35-4.218-1.29-4.522z" fill-rule="evenodd"/>
<path clip-rule="evenodd" d="m52.374 63.197c-0.591 0.486-0.759 1.393-1.29 1.936-1.49-0.016-3.158 0.145-4.199-0.32v-1.616h1.937c0.005-0.856-0.121-1.844 0.323-2.259 2.107 0.347 2.651 0.728 3.552 2.583-0.171 0.496-0.337 0.021-0.323-0.324z" fill-rule="evenodd"/>
<path clip-rule="evenodd" d="m205.07 74.174c6.253 0.725 13.872 2.814 18.724 8.071 0.289-0.142 0.578-0.284 0.646-0.646 5.168 2.559 8.562 8.3 13.883 11.623 1.147 2.832 3.121 4.845 5.488 6.458 2.932 4.062 4.997 8.993 7.425 13.559 0.906 6.087 3.562 10.427 4.521 16.462-0.967-0.431-1.288 0.023-1.616 0.969-2.648-6.35-4.041-12.884-6.455-19.37-0.53-1.421-1.19-3.103-1.938-4.196-1.727-2.522-4.656-4.908-6.778-7.424-1.238-1.469-1.756-3.258-2.906-4.521-3.045-3.337-7.563-6.127-10.653-10.007-2.33-0.791-4.729-1.513-5.812-3.552-2.291-0.229-3.353-2.107-5.488-2.905-2.226-0.831-5.916-0.691-8.394-1.29-0.649-0.158-1.085-0.877-1.613-0.97-0.586-0.1-1.464 0.494-1.939 0.323-1.859-0.675-3.263-2.585-5.165-2.906-0.315-0.053-1.056 0.651-1.29 0.646-1.077-0.029-2.767-0.447-3.875-0.646-2.543-0.455-5.349-1.574-7.425-2.906-0.832 0.673-2.666 0.276-2.905-0.644-3.87 0.615-6.492-0.187-11.623-0.646-0.852-0.076-0.982 0.203-1.29-0.646-5.297 0.399-10.396 1.269-15.172 0-3.642 1.146-5.609 1.799-9.363 1.613-1.096 1.661-3.04 0.492-3.876 2.262-7.806 2.725-14.507 5.622-19.368 9.038-1.941 1.366-3.192 3.058-4.845 4.198-0.468 0.323-1.167-0.002-1.613 0.323-2.706 1.979-4.774 6.122-8.071 7.425-1.471 2.617-2.914 5.262-5.165 7.101-1.119 4.585-4.006 7.401-6.135 10.977-3.744 9.188-4.419 25.357-4.195 35.835 0.013 4.937 0.751 9.148 2.583 12.267 0.292 5.575 3.273 9.839 5.812 13.883 1.91 3.042 2.517 6.67 4.519 9.684 1.542 2.325 3.907 3.534 5.166 6.135 0.911-0.266 0.835 0.454 1.615 0.323 1.461 2.843 4.106 4.5 6.778 6.135 3.72 7.041 10.788 10.732 17.111 15.172 3.531 0.491 5.743 4.117 8.715 3.229 0.998 1.909 4.713 1.39 5.488 1.29 6.544 3.354 16 1.752 21.63 4.521 2.354-1.316 3.547-1.025 5.812 0 2.809-0.158 12.183-0.119 14.205 0.644 16.936-2.667 31.871-6.766 43.583-17.109h1.29c5.701-6.137 11.271-12.402 15.496-20.017 2.65-1.75 3.048-8.289 5.812-10.977 2.495-14.189-0.242-28.531-1.937-40.031 0.639-0.224 0.861-0.861 0.97-1.613 1.219 0.387 2.335 2.856 0.967 3.873 1.778 3.494 1.581 8.967 2.259 13.559 2.103 2.606 1.041 12.656 0.97 18.081-0.011 0.802-0.271 5.176-0.97 3.227-1.842 8.945-3.521 15.731-7.747 22.276-2.922 4.526-4.879 8.814-7.748 13.559-2.63 0.634-3.81 4.324-6.135 4.198-5.693 6.626-13.202 9.96-20.337 12.913-0.434 0.213-0.602 0.688-0.646 1.29-8.166 3.523-15.882 4.146-28.731 5.812-0.323-0.444-0.533 0.139-0.97-0.646-2.01 1.464-5.302 0.365-8.715 0-2.527-0.271-5.436 0.429-7.427 0-0.134-0.029-1.438-1.122-2.26-1.29-1.169-0.241-2.604 0.194-3.552 0-2.165-0.449-3.578-2.356-6.132-1.615-1.947-1.789-4.582-2.362-7.425-2.26-0.202-0.982-1.736-0.631-1.938-1.613-6.941-0.013-9.645-2.564-16.142-4.842 0.092-0.522-0.306-0.557-0.323-0.97-6.605-0.765-9.687-6.55-15.173-9.36-1.65-2.549-3.828-4.566-6.458-6.135-4.201-7.961-10.146-14.174-12.913-23.566-0.877-0.415-1.017-1.565-1.936-1.938-2.373-10.53-7.37-17.537-7.748-28.731-0.11-3.198 0.738-6.655 0-10.654-2.75-3.707-6.936-5.979-9.687-9.684-7.022-1.96-11.62-1.298-18.401-4.845-1.721 0.244-2.824-0.546-3.229 0-3.458-3.278-7.937-2.302-11.62-3.872-1.734-0.741-3.416-2.538-5.488-3.552-3.389-1.658-5.268-2.188-7.425-4.196-0.772-0.72-1.101-1.902-1.939-2.583-0.691-0.562-1.881-0.673-2.583-1.293-0.42-0.37-0.26-1.203-0.646-1.613-0.756-0.809-2.375-1.093-3.226-1.939-2.086-2.07-3.279-4.579-4.521-6.778-3.547-5.115-10.012-9.962-12.589-17.111-0.704 0.029-1.038-1.934-1.29-1.29-1.246-3.999-2.139-7.211-3.552-11.623-0.533-1.658-1.771-2.832-1.936-4.196-0.699-5.707 3.66-9.857 3.549-16.142 2.569-3.783 4.387-8.31 6.458-12.592 5.016-4.884 10.16-9.64 16.142-13.56 5.573-2.278 10.667-4.474 16.142-7.748 5.086-0.686 10.125-2.987 15.172-4.842 3.255-1.196 6.965-1.45 10.33-2.26 3.227-0.777 5.975-1.358 9.363-1.936 0.56-0.097 3.552-1.256 6.456-0.97 4.668-1.476 9.902-1.397 15.498-1.613 4.647-0.182 9.439-0.686 13.236 0.644 8.134-1.682 21.644 0.407 33.25 2.259 5.614 0.898 9.306 3.873 13.883 4.521 4.519 3.032 10.52 5.843 17.435 8.071 3.275 3.179 6.98 5.93 12.267 7.102 5.669 4.876 7.739 13.354 12.592 19.047 1.38 4.135 1.729 9.041 1.29 14.206-2.112 2.083-1.727 7.259 0 9.684-0.61 4.179 0.36 5.887 1.92 8.401zm-186.59 10.653c-0.544-1.726 0.967-1.4 0.967-2.583-0.94-0.373-0.699-1.448-1.613-1.936-0.878-0.471-3.439-0.042-3.875-0.323-1.603-1.033-0.767-2.683-2.259-4.198-0.978 0.1-1.153 1.001-2.583 0.646 0.002-0.323-0.26-0.383-0.323-0.646-0.326-1.508 1.295-1.072 0.969-2.583-0.478-0.165-0.814-0.475-1.292-0.644-0.218 0.749-0.822 1.111-1.29 1.613 0.678 1.689 1.204 3.531 2.906 4.198 0.258-1.119 1.616-0.341 1.937-0.323-0.371 0.812-0.152 2.212-1.29 2.26 0.278 2.517 2.538 3.058 3.549 4.842-0.155-1.017 0.991-0.73 0.646-1.937-1.083 0.221-1.18-0.541-1.29-1.292 0.25-0.071 0.373-0.271 0.32-0.646 0.67 0.191 2.123-0.397 2.262 0.323-0.363 5.365 0.917 8.381 3.873 10.977 0.192-0.667-0.399-2.121 0.323-2.26 0.567 0.187 1.896-0.389 1.936 0.323 0.615 1.797-1.224 1.14-1.29 2.259 0.712 2.196 1.663 5.867 3.873 5.488-1.382-0.898 1.256-2.359-0.323-2.583-0.276 0.097-1.219 0.019-1.29-1.29 0.591-0.594 0.883-1.487 2.259-1.292 0.305 1.277 0.252 1.871-0.323 2.906 0.436 0.641 2.254-0.103 2.259 0.969 0.344 0.875 0.205 1.511-0.644 1.937-0.565-0.788-1.839-0.654-1.939 0.646 3.81 3.292 7.341 6.862 11.623 9.684 0.341-3.247-3.255-2.556-3.552-5.165 0.326-0.87 3.042-1.645 3.552-0.323-1.288 3.684 3.62 2.927 4.519 4.842-0.539 0.751-1.337 1.245-1.937 1.939 4.274 2.656 10.711 6.337 16.142 6.455-0.297-1.104-1.547-1.25-1.613-2.583 0.772-1.075 0.985-0.717 2.259-1.29 0.002 0.641 0.88 0.41 0.646 1.29 0.081 1.266-1.169 1.201-0.97 2.583 0.47 1.035 2.081 0.933 2.583 1.937 0.507-1.535 1.624-2.465 2.26-3.873 0.36 0.5 1.051 0.673 0.969 1.613-0.1 0.978-0.999 1.153-0.646 2.583 3.326 1.158 5.861 2.876 9.684 2.582 0.681-0.717-0.339-1.556 0-2.905 1.424 0.238 1.324-1.043 2.262-1.29-0.097 0.633 0.434 0.638 0.644 0.969-0.103 1.403-0.969 2.042-1.29 3.227 3.1 0.441 6.056 3.402 9.684 1.293 1.779 2.267 4.829 0.544 7.748 0.323 1.372-5.948 5.859-15.916-0.967-19.371-0.184 1.474 0.57 2.01 0.323 3.552-0.67-0.194-2.123 0.396-2.262-0.323-0.578-1.871 1.101-1.484 0.969-2.906-1.829-0.405-2.651-0.531-5.488-0.646 0.118 1.172 1.043 1.54 0.646 3.229-0.925-0.415-2.517 0.533-2.905-0.969 0.034-1.259 1.382-1.201 1.613-2.26-2.036-0.948-3.008 0.305-4.519 1.293-0.441-0.852-1.358-1.225-1.613-2.262-2.48-0.105-3.245-0.715-5.165 0.646-1.34-2.157-3.36-1.175-5.488-1.613-0.588 0.812-0.588 2.212-1.939 2.259-0.504-0.465-1.122-0.814-1.29-1.613 0.462-0.399 0.612-1.111 0.646-1.939-2.17-0.631-2.496 0.128-4.521-0.323 0.121 1.626 0 3.013-1.29 3.229-0.555-0.416-1.271-0.667-1.293-1.613 0.005-1.077 2.197-0.938 1.293-1.939-2.049 0.055-2.302-0.699-4.845-1.29-1.303 1.19-0.465 1.674-0.32 3.552-0.05 1.148-2.205 1.865-3.229 0.967-0.26-1.55 0.596-1.984 1.29-2.583-2.254-4.309-4.939-2.998-8.394-4.842-0.88 1.138-2.352 1.49-3.873 0.646-0.04-0.93 0.176-2.115-0.323-2.583-1.815-0.542-4.685 2.908-5.488-0.646 0.415-0.554 1.537-0.399 1.613-1.292-2.875-1.766-5.184-2.969-8.392-4.842-0.444-1.24-2.356-3.1-3.552-1.613 1.54 0.166 1.729 2.732 0.323 3.229-0.431-0.323-0.975-0.534-1.292-0.97-0.329-1.406 0.667-1.484 0.969-2.259-0.824-0.766-1.765-0.164-2.259-0.671zm174.33-17.755c0.187-0.318 0.305-0.817 0.646-0.969 5.546-2.464 7.829-9.789 7.424-16.788-0.339-5.867-4.405-11.061-6.78-14.203-1.316-4.064-3.612-7.148-6.132-10.01-5.365-0.242-7.961-4.309-12.27-6.778-0.982-0.565-2.609-0.42-3.873-0.97-4.111-1.787-8.609-5.286-12.269-5.812-0.507-1.474-2.102-1.056-2.906-1.29-2.272-0.662-4.76-2.585-6.778-3.229-1.502-0.479-3.541-1.282-4.198-1.29-3.623-0.05-7.739-0.907-11.62-0.97 0.058-0.704-0.266-1.027-0.97-0.969-5.06 0.368-9.234-0.933-11.943 0-3.25-1.222-7.75-0.205-11.3 0-0.849 0.095-0.255-1.25-1.292-0.967-2.77 0.623-6.521-1.298-9.038 0-13.562 0.816-26.745 3.165-38.744 5.81-3.762 0.831-7.706 4.34-11.3 3.552-2.046 1.542-5.22 3.184-7.748 3.229-18.614 7.338-41.547 20.829-36.802 49.395 4.637 2.895 6.221 8.841 11.62 10.974-0.344 1.208 0.804 0.922 0.646 1.938 2.31 1.55 5.055 2.814 7.104 4.842 0.329 0.326 0.263 1.295 0.644 1.613 1.815 1.508 4.64 2.136 7.104 3.552 2.985 1.713 5.623 4.075 8.394 5.165 2.149 0.849 4.603 0.402 6.455 1.937 0.636 0.097 0.641-0.436 0.97-0.644 9.432 3.97 21.06 4.561 31.314 6.778 4.5-0.292 9.203 0.943 13.559 0.646 1.934-0.134 5.665-0.476 7.102-1.616 1.059-0.835 1.038-2.443 1.939-3.873 1.626-2.585 3.336-4.306 5.812-5.812 1.403-2.9 4.143-4.466 6.132-6.778 6.36-3.121 11.055-8.636 18.401-10.01 1.14-2.096 4.209-2.073 5.167-3.549-0.005 1.398 0.817-0.909 1.29 0.644 2.146-1.608 5.35-2.987 7.748-2.583 1.358-1.731 4.806-0.381 7.425-1.936 5.218 1.833 12.188-0.804 17.758 0.323 5.63 1.137 11.57 1.605 18.4 3.552 0.405-1.232-0.286-1.555 0.323-2.583 1.19 0.668 0.86-0.738 2.59-0.323zm-82 128.49c-0.702 0.675 0.163 0.922 0 1.937 0.447-0.014 0.709 0.152 0.969 0.323-0.023-0.562 0.071-1.004 0.323-1.29-1.36-0.15-0.23-0.25-1.29-0.97zm114.93 18.4c0.673-0.757 1.343 1.219 2.582 0.97 1.403-2.146 3.353-3.752 4.52-6.135-2.17 1.7-6.63 2.84-7.1 5.16zm-2.26-0.32c-1.729 0.709-5.562 3.137-2.585 5.488 1.65-0.65 4.37-3.52 2.58-5.49zm-83.94 4.2c1.469 0.62 2.525 1.823 4.196 2.26 4.812 1.256 10.427 1.105 14.852 4.195 1.817 0.065 3.039 0.759 4.519 0.323 0.978 0.961 2.898 0.978 4.195 1.615 0.592-1.519-0.134-2.445 0.646-3.875-11.709-1.859-23.017-2.349-34.22-7.747 0.91 2.51 3.87 2.41 5.81 3.23zm67.8 2.58c0.715 1.353 0.862 2.613 0.967 3.872 1.382-0.226 1.983-0.606 3.552-0.644 0.25-1.495-0.541-3.934 1.937-3.875 0.04 0.93-0.176 2.112 0.323 2.582 1.227-0.494 2.215-1.227 3.229-1.936-0.423-1.411 0.718-2.919 0-3.553-2.87 1.13-7.12 2.85-10.01 3.55zm-7.11 1.61c0.48 1.829-0.014 2.496-0.323 4.198 2.52-0.496 3.525 0.082 5.488-0.969-0.387-2.325 0.572-3.303 1.292-4.52-1.29-0.36-4.09 0.88-6.46 1.29zm-6.45 0.65c0.764 1.388 1.576 2.725 2.259 4.196 0.014 0.097 2.01-0.555 2.906-0.645-0.095-1.521-0.943-2.285-0.646-4.198-2.01 0.07-2.64 0.92-4.52 0.64zm-23.9 0c0.683 1.316 0.938 2.703-0.32 3.552 0.016 0.413 0.412 0.447 0.32 0.967 4.613-0.543 7.307 0.949 10.977-0.322 0.107-1.29-0.575-1.792-0.323-3.227-1.101-0.73-2.041-0.158-2.903-0.646-0.459 1.049-0.136 2.877-1.615 2.906-1.228-0.281-0.278-2.735-0.967-3.553-1.16 0.27-3.92 0.21-5.17 0.32zm20.02 0.97c-0.181 1.001-0.386 1.98-1.613 1.937-1.024-1.453-2.232-2.72-5.165-2.26-0.265 1.458-0.935 2.509-1.292 3.872 2.417 1.248 7.461-0.016 10.977 0-0.479-1.671 0.914-3.772-0.323-4.195-0.59 1.07-1.18 0.26-2.59 0.65z" fill-rule="evenodd"/>
<path fill="#fff" clip-rule="evenodd" d="m20.736 85.474c-0.302 0.775-1.298 0.854-0.969 2.259 0.318 0.436 0.862 0.646 1.292 0.97 1.406-0.497 1.217-3.064-0.323-3.229 1.196-1.487 3.108 0.373 3.552 1.613 3.208 1.874 5.517 3.077 8.392 4.842-0.077 0.893-1.198 0.738-1.613 1.292 0.804 3.555 3.673 0.105 5.488 0.646 0.499 0.467 0.284 1.652 0.323 2.583 1.521 0.843 2.992 0.491 3.873-0.646 3.455 1.844 6.14 0.534 8.394 4.842-0.694 0.599-1.55 1.032-1.29 2.583 1.024 0.898 3.179 0.181 3.229-0.967-0.145-1.878-0.983-2.362 0.32-3.552 2.543 0.591 2.795 1.345 4.845 1.29 0.904 1.001-1.288 0.862-1.293 1.939 0.021 0.946 0.738 1.198 1.293 1.613 1.29-0.216 1.411-1.603 1.29-3.229 2.025 0.452 2.351-0.308 4.521 0.323-0.034 0.828-0.184 1.54-0.646 1.939 0.168 0.798 0.786 1.148 1.29 1.613 1.351-0.047 1.351-1.448 1.939-2.259 2.128 0.438 4.148-0.544 5.488 1.613 1.92-1.361 2.685-0.751 5.165-0.646 0.255 1.038 1.172 1.411 1.613 2.262 1.51-0.988 2.482-2.241 4.519-1.293-0.231 1.059-1.579 1.001-1.613 2.26 0.389 1.502 1.98 0.554 2.905 0.969 0.397-1.689-0.528-2.057-0.646-3.229 2.837 0.116 3.66 0.242 5.488 0.646 0.131 1.421-1.547 1.035-0.969 2.906 0.139 0.72 1.592 0.129 2.262 0.323 0.247-1.542-0.507-2.078-0.323-3.552 6.826 3.455 2.338 13.423 0.967 19.371-2.918 0.221-5.969 1.943-7.748-0.323-3.628 2.109-6.584-0.852-9.684-1.293 0.321-1.185 1.188-1.823 1.29-3.227-0.21-0.331-0.741-0.336-0.644-0.969-0.938 0.247-0.838 1.528-2.262 1.29-0.339 1.35 0.681 2.188 0 2.905-3.823 0.294-6.358-1.424-9.684-2.582-0.352-1.43 0.547-1.605 0.646-2.583 0.082-0.94-0.609-1.114-0.969-1.613-0.636 1.408-1.752 2.338-2.26 3.873-0.501-1.004-2.112-0.901-2.583-1.937-0.2-1.382 1.051-1.316 0.97-2.583 0.233-0.88-0.644-0.649-0.646-1.29-1.274 0.573-1.487 0.215-2.259 1.29 0.065 1.332 1.316 1.479 1.613 2.583-5.43-0.118-11.867-3.799-16.142-6.455 0.599-0.694 1.397-1.188 1.937-1.939-0.899-1.916-5.807-1.159-4.519-4.842-0.51-1.321-3.226-0.546-3.552 0.323 0.297 2.609 3.894 1.918 3.552 5.165-4.282-2.821-7.813-6.392-11.623-9.684 0.1-1.301 1.374-1.435 1.939-0.646 0.849-0.426 0.988-1.062 0.644-1.937-0.005-1.072-1.823-0.328-2.259-0.969 0.575-1.035 0.628-1.629 0.323-2.906-1.376-0.194-1.668 0.699-2.259 1.292 0.071 1.309 1.014 1.387 1.29 1.29 1.579 0.224-1.059 1.684 0.323 2.583-2.209 0.378-3.161-3.292-3.873-5.488 0.066-1.119 1.905-0.462 1.29-2.259-0.04-0.712-1.369-0.137-1.936-0.323-0.723 0.139-0.131 1.592-0.323 2.26-2.956-2.596-4.235-5.612-3.873-10.977-0.139-0.72-1.592-0.131-2.262-0.323 0.053 0.375-0.071 0.575-0.32 0.646 0.11 0.751 0.208 1.513 1.29 1.292 0.344 1.206-0.801 0.92-0.646 1.937-1.011-1.784-3.271-2.325-3.549-4.842 1.138-0.047 0.919-1.448 1.29-2.26-0.321-0.018-1.679-0.796-1.937 0.323-1.702-0.667-2.228-2.509-2.906-4.198 0.468-0.502 1.072-0.864 1.29-1.613 0.478 0.168 0.814 0.479 1.292 0.644 0.326 1.511-1.295 1.075-0.969 2.583 0.063 0.263 0.326 0.323 0.323 0.646 1.429 0.355 1.605-0.546 2.583-0.646 1.492 1.516 0.657 3.166 2.259 4.198 0.436 0.281 2.998-0.147 3.875 0.323 0.914 0.488 0.672 1.563 1.613 1.936 0 1.182-1.511 0.856-0.967 2.583 0.494 0.529 1.435-0.073 2.259 0.669zm25.182 27.766c0.105-0.757 0.386-1.335 0.644-1.939-1.048 0.068-1.613-0.822-2.26-1.937h-1.936c-1.484 2.58 2.336 3.47 3.552 3.88zm-21.953-22.925c0.105 0.754 0.386 1.335 0.644 1.937h1.615c0.636-0.673 0.247-2.144 0-2.906-1.25-0.173-1.328 0.822-2.259 0.969zm4.196 5.812c0.523 1.109 1.64 1.521 2.583 0.646v-1.616c-1.167-0.806-2.341-0.588-2.583 0.97zm0.969 4.843c1.017-0.155 0.73 0.991 1.937 0.646 0.019-1.059 0.917-1.235 0.646-2.583-0.988-0.783-1.011-0.846-2.259-0.969-0.541 0.531-0.258 1.892-0.324 2.902zm10.977-0.97c0.564 0.617 1.208 1.161 2.259 1.292 0.964-0.688 0.549-2.041 0.323-3.229-1.665-0.155-2.569 0.446-2.582 1.939zm-5.488 1.62c1.234 0.16 1.708-0.444 1.936-1.292 0.074-0.609-0.365-0.712-0.323-1.29h-2.906c-0.11 1.4 0.245 2.33 1.293 2.58zm5.165 4.19c0.998 0.005 0.638 0.701 2.259 0.646 1.942-3.06-2.913-4.67-2.259-0.65zm5.488 0c0.649 0.749 1.174 1.624 2.259 1.939 0.702-0.268 0.717-1.219 1.613-1.293-0.036-2.05-2.737-1.6-3.872-0.65zm10.007 3.55c0.302-1.098 0.431-2.367 0.646-3.552-0.381-0.371-1.143-0.365-1.937-0.323-1.367 2.71-0.632 3.62 1.291 3.87zm5.489-3.55c-0.139 0.615-0.696 0.812-0.646 1.616 0.657 0.095 0.862 0.646 1.292 0.967 0.63-0.339 1.29-0.646 1.937-0.967-0.03-1.93-0.947-1.92-2.583-1.62zm6.134 0.97c0.034 0.828 0.181 1.54 0.644 1.937 0.431-0.084 1.442-0.152 2.262-0.646 0.244-2.54-1.836-2.37-2.906-1.29zm5.489 0c-0.323 1.398 0.36 1.792 0.644 2.583 1.077-0.615 1.051-0.457 2.262-0.646 0.32-2.081-0.636-2.583-1.616-2.583 0.325 0.98-0.72 0.58-1.29 0.65zm6.778 5.17c0.213-0.434 0.691-0.602 1.292-0.646 0.368-1.766-0.977-1.821-1.616-2.583-0.887 0.57-0.987 3.06 0.324 3.23zm3.875-0.65c0.941 0.849 1.214 0.36 2.583 0.646 0.286-0.681 0.982-0.954 0.967-1.937-1.072-1.169-1.748 0.04-2.906-0.646-0.184 0.68-0.799 0.92-0.644 1.94zm-24.859 0.97c0.426-0.307 1.059-0.145 1.937 0 0.373-0.904 0.373-1.679 0-2.583-1.637-0.504-1.65 1.24-2.259 0-0.384 0.89-0.371 1.96 0.322 2.58zm-9.363 0.32c0.465 1.739 1.873 2.141 3.552 1.29v-3.549h-1.936c0.226 1.93-1.598 1.31-1.616 2.26zm23.245 0.33c0.284-0.791 0.967-1.185 0.646-2.583h-2.906c-0.033 2.1 0.902 2.57 2.26 2.58zm-9.04 1.61c1.216 0.221 1.366 0.221 2.583 0-0.257-1.119 0.481-1.24 0.323-2.26-1.487-1.48-3.048 0.22-2.906 2.26zm24.859 1.61c1.797 0.292 2.538-0.473 2.906-1.613-0.652-2.98-3.402-1.6-2.906 1.61zm-13.559-0.64c-0.019-0.197-0.047-0.383-0.323-0.323-0.447 1.306 0.701 1.02 0.646 1.937 1.248-0.701 1.09 0.123 2.583-0.97 0.326-1.831-0.712-2.301-1.292-3.226 0.059 1.45-1.21 1.58-1.614 2.58zm6.134-1.3c-0.034 1.001 0.394 1.542 0.644 2.259 0.762 0.008 0.951-0.554 1.938-0.323-0.084-0.943 0.73-0.99 0.644-1.936-1.037-1.34-1.759 0.03-3.226 0zm-15.174 0.97c-0.967 1.773 0.47 2.922 1.939 3.229 0.131-0.407 0.415-0.66 0.967-0.646-0.171-1.119 0.48-3.063-0.646-3.229-0.046 0.93-1.346 0.6-2.26 0.65zm20.017 7.11c0.917-1.02 2.17-1.702 1.936-3.872-1.014 0.367-0.783-0.508-1.29-0.646-1.55 0.73-2.901 3.55-0.646 4.52zm-8.394-3.23v1.615c1.637 0.867 4.292 0.294 3.552-2.259-2.289-0.21-1.758 0.79-3.552 0.65z" fill-rule="evenodd"/>
<path clip-rule="evenodd" d="m94.344 92.898c0.523 1.18-1.618 2.464-2.906 2.906-0.197-0.772-0.465-1.474-0.323-2.583 1.976 0.575 0.93-1.868 2.905-1.292-0.104 0.396 0.051 1.994 0.324 0.969z" fill-rule="evenodd"/>
<path clip-rule="evenodd" d="m168.6 118.73c4.689 0.985 6.105 5.271 8.717 9.361 1.312 2.057 3.471 3.631 4.52 5.488 1.466 2.599 1.4 5.967 5.812 5.812 1.138 2.386 3.849 3.289 5.488 5.165 1.105 1.264 1.04 3.311 2.905 3.872 0.163 3.886 1.957 6.881 0.644 10.01-1.04 2.48-5.022 3.188-5.809 5.812-4.329 0.839-9.237 1.779-17.435 1.613-0.362-0.496-0.927-0.793-1.29-1.292-2.094-0.311-3.872-0.103-5.812-1.29-1.169-0.715-1.783-2.478-2.905-3.229-1.868-1.25-4.559-1.153-6.458-2.259-0.995-0.578-1.458-2.076-2.582-2.906-3.045-2.246-6.348-2.751-8.718-5.812-0.373-3.14-3.168-5.551-3.549-9.037-0.707-6.455 2.635-11.505 5.165-14.853 5.499-2.17 9.147-7.563 17.432-7.101 1.57 0.09 2.5 0.98 3.87 0.65zm2.25 4.19c-9.057-5.068-20.372 1.957-25.826 9.684-0.428 3.645-0.612 6.166 0 9.687 2.987 1.855 2.507 7.178 6.778 7.748 0.381-1.059-0.57-2.336-0.646-3.875h-1.936c-0.825-0.896-1.111-2.33-0.97-4.196 1.634 0.197 1.531 2.129 2.905 2.583 0.573-2.443 0.405-5.622 1.939-7.102 0.231 0.844 1.161 0.988 1.29 1.937-2.735 5.743 0.021 11.783 3.229 15.818 7.653 1.716 14.629 10.328 21.63 6.778 2.364 2.28 5.452-0.606 7.748 0.646 0.389-0.925 2.512-2.008 2.905-0.967 1.797-1.679 3.618-4.212 5.166-5.168-0.395-9.595-7.525-14.662-13.236-16.142 0.05-1.556-1.39-1.624-0.97-3.55-4.729-0.465-10.178-7.75-15.172-5.165-0.395-0.948-1.624-4.574 0.323-4.842 0.499 0.36 0.672 1.048 1.612 0.967 1.61-2.22 2.7-2.75 3.25-4.85z" fill-rule="evenodd"/>
<path clip-rule="evenodd" d="m118.23 172.32c1.3 1.716-0.399 6.353 0.644 9.36-1.432-0.073-1.424-1.586-2.906-1.612-0.59-3.94 1.05-5.64 2.27-7.75z" fill-rule="evenodd"/>
<path fill="#fff" clip-rule="evenodd" d="m232.84 208.8c-1.167 2.383-3.116 3.988-4.52 6.135-1.239 0.249-1.909-1.727-2.582-0.97 0.47-2.33 4.93-3.47 7.1-5.17z" fill-rule="evenodd"/>
<path clip-rule="evenodd" d="m117.26 31.237c0.234 0.985-0.331 1.177-0.323 1.937-1.968-0.922-2.091 0.867-2.583 2.259-2.125-1.865-4.582-2.323-6.135-1.937 0.192 1.164 0.546 2.165 0 3.229h-1.937c-0.278-0.26-0.191-0.885-0.646-0.969-0.281-1.248 0.788-1.148 0.969-1.937-1.947-0.546-3.089-0.234-4.842-0.646-0.862 0.539-0.57 2.228-1.293 2.905-1.907 0.187-2.524-0.919-3.229-1.936-1.521 1.151 1.621 4.183 0 5.488-0.308-0.552-1.014-0.707-1.613-0.969v-2.26c-3.686-1.405 0.108-7.517 3.229-5.812 1.962-1.852 8.189 0.709 11.943 0.323 2.51-0.253 4.35-1.898 6.46 0.325z" fill-rule="evenodd"/>
<path clip-rule="evenodd" d="m90.792 114.53c-0.368 1.14-1.109 1.905-2.906 1.613-0.496-3.21 2.254-4.59 2.906-1.61z" fill-rule="evenodd"/>
<path fill="#fff" clip-rule="evenodd" d="m112.1 196.53c-0.252 0.286-0.347 0.728-0.323 1.29-0.26-0.171-0.522-0.337-0.969-0.323 0.163-1.015-0.702-1.262 0-1.937 1.06 0.72-0.07 0.82 1.29 0.97z" fill-rule="evenodd"/>
<path fill="#fff" clip-rule="evenodd" d="m175.05 222.36c0.688 0.817-0.261 3.271 0.967 3.553 1.479-0.029 1.156-1.857 1.615-2.906 0.862 0.488 1.803-0.084 2.903 0.646-0.252 1.435 0.431 1.937 0.323 3.227-3.67 1.271-6.363-0.221-10.977 0.322 0.092-0.52-0.305-0.554-0.32-0.967 1.258-0.849 1.003-2.235 0.32-3.552 1.25-0.11 4.01-0.05 5.17-0.32z" fill-rule="evenodd"/>
<metadata><rdf:RDF><cc:Work><dc:format>image/svg+xml</dc:format><dc:type rdf:resource="http://purl.org/dc/dcmitype/StillImage"/><cc:license rdf:resource="http://creativecommons.org/licenses/publicdomain/"/><dc:publisher><cc:Agent rdf:about="http://openclipart.org/"><dc:title>Openclipart</dc:title></cc:Agent></dc:publisher><dc:title>bagel</dc:title><dc:date>2007-11-13T15:03:00</dc:date><dc:description>Ready-To-Use Food And Drink Spot Illustrations by Susan Gaber 1982&#xD;\n&#xD;\nBook as a whole is under copyright but contents are copyright-free&#xD;\n&#xD;\nFrom archive.org</dc:description><dc:source>http://openclipart.org/detail/8194/bagel-by-johnny_automatic-8194</dc:source><dc:creator><cc:Agent><dc:title>johnny_automatic</dc:title></cc:Agent></dc:creator><dc:subject><rdf:Bag><rdf:li>bagel</rdf:li><rdf:li>baked goods</rdf:li><rdf:li>bread</rdf:li><rdf:li>clip art</rdf:li><rdf:li>clipart</rdf:li><rdf:li>externalsource</rdf:li><rdf:li>food</rdf:li><rdf:li>image</rdf:li><rdf:li>media</rdf:li><rdf:li>png</rdf:li><rdf:li>public domain</rdf:li><rdf:li>svg</rdf:li></rdf:Bag></dc:subject></cc:Work><cc:License rdf:about="http://creativecommons.org/licenses/publicdomain/"><cc:permits rdf:resource="http://creativecommons.org/ns#Reproduction"/><cc:permits rdf:resource="http://creativecommons.org/ns#Distribution"/><cc:permits rdf:resource="http://creativecommons.org/ns#DerivativeWorks"/></cc:License></rdf:RDF></metadata></svg>
